<?xml version="1.0" standalone="no"?>
<!DOCTYPE svg PUBLIC "-//W3C//DTD SVG 1.1//EN" "http://www.w3.org/Graphics/SVG/1.1/DTD/svg11.dtd" >
<svg xmlns="http://www.w3.org/2000/svg">
<metadata>
Created by FontForge 20120731 at Fri Jul  7 14:32:02 2017
 By admin
</metadata>
<defs>
<font id="iconfont" horiz-adv-x="1024" >
  <font-face 
    font-family="iconfont"
    font-weight="500"
    font-stretch="normal"
    units-per-em="1024"
    panose-1="2 0 6 3 0 0 0 0 0 0"
    ascent="896"
    descent="-128"
    x-height="792"
    bbox="0 -212 1294 896"
    underline-thickness="0"
    underline-position="0"
    unicode-range="U+0078-E8FB"
  />
<missing-glyph 
 />
    <glyph glyph-name=".notdef" 
 />
    <glyph glyph-name=".notdef" 
 />
    <glyph glyph-name=".null" horiz-adv-x="0" 
 />
    <glyph glyph-name="nonmarkingreturn" horiz-adv-x="341" 
 />
    <glyph glyph-name="x" unicode="x" horiz-adv-x="1001" 
d="M281 543q-27 -1 -53 -1h-83q-18 0 -36.5 -6t-32.5 -18.5t-23 -32t-9 -45.5v-76h912v41q0 16 -0.5 30t-0.5 18q0 13 -5 29t-17 29.5t-31.5 22.5t-49.5 9h-133v-97h-438v97zM955 310v-52q0 -23 0.5 -52t0.5 -58t-10.5 -47.5t-26 -30t-33 -16t-31.5 -4.5q-14 -1 -29.5 -0.5
t-29.5 0.5h-32l-45 128h-439l-44 -128h-29h-34q-20 0 -45 1q-25 0 -41 9.5t-25.5 23t-13.5 29.5t-4 30v167h911zM163 247q-12 0 -21 -8.5t-9 -21.5t9 -21.5t21 -8.5q13 0 22 8.5t9 21.5t-9 21.5t-22 8.5zM316 123q-8 -26 -14 -48q-5 -19 -10.5 -37t-7.5 -25t-3 -15t1 -14.5
t9.5 -10.5t21.5 -4h37h67h81h80h64h36q23 0 34 12t2 38q-5 13 -9.5 30.5t-9.5 34.5q-5 19 -11 39h-368zM336 498v228q0 11 2.5 23t10 21.5t20.5 15.5t34 6h188q31 0 51.5 -14.5t20.5 -52.5v-227h-327z" />
    <glyph glyph-name="gengduo" unicode="&#xe63a;" 
d="M192 396q40 0 68 -28t28 -68t-28 -68t-68 -28t-68 28t-28 68t28 68t68 28zM192 428q-53 0 -90.5 -37.5t-37.5 -90.5t37.5 -90.5t90.5 -37.5t90.5 37.5t37.5 90.5t-37.5 90.5t-90.5 37.5v0zM512 396q40 0 68 -28t28 -68t-28 -68t-68 -28t-68 28t-28 68t28 68t68 28z
M512 428q-53 0 -90.5 -37.5t-37.5 -90.5t37.5 -90.5t90.5 -37.5t90.5 37.5t37.5 90.5t-37.5 90.5t-90.5 37.5v0zM832 396q40 0 68 -28t28 -68t-28 -68t-68 -28t-68 28t-28 68t28 68t68 28zM832 428q-53 0 -90.5 -37.5t-37.5 -90.5t37.5 -90.5t90.5 -37.5t90.5 37.5
t37.5 90.5t-37.5 90.5t-90.5 37.5v0z" />
    <glyph glyph-name="youhuiquan" unicode="&#xe665;" 
d="M957 178zM957.5 375q-6.5 0 -11 4.5t-4.5 10.5v70q0 7 4.5 11.5t11 4.5t11 -4.5t4.5 -11.5v-70q0 -6 -4.5 -10.5t-11 -4.5zM957 464zM957 464zM65.5 589q-6.5 0 -11 4.5t-4.5 10.5v47q0 7 4.5 11.5t10.5 4.5h892q7 0 11.5 -4.5t4.5 -11.5v-45q0 -6 -4.5 -10.5t-11 -4.5
t-11 4.5t-4.5 10.5v30h-861v-32q0 -6 -4.5 -10.5t-11 -4.5zM957 -44h-892q-6 0 -10.5 4.5t-4.5 11t4.5 11t10.5 4.5h877v43q0 6 4.5 10.5t11 4.5t11 -4.5t4.5 -10.5v-58q0 -7 -4.5 -11.5t-11.5 -4.5zM957 445q-35 0 -59.5 25t-24.5 60t24.5 60t59.5 25q7 0 11.5 -4.5
t4.5 -11t-4.5 -11t-11.5 -4.5q-22 0 -38 -15.5t-16 -38t16 -38.5t38 -16q7 0 11.5 -4.5t4.5 -11t-4.5 -11t-11.5 -4.5zM957 232q-35 0 -59.5 25t-24.5 60t24.5 60t59.5 25q7 0 11.5 -4.5t4.5 -11t-4.5 -11t-11.5 -4.5q-22 0 -38 -16t-16 -38t16 -38t38 -16q7 0 11.5 -4.5
t4.5 -11t-4.5 -11t-11.5 -4.5zM957 19q-35 0 -59.5 25t-24.5 60t24.5 60t59.5 25q7 0 11.5 -4.5t4.5 -11t-4.5 -11t-11.5 -4.5q-22 0 -38 -16t-16 -38.5t16 -38t38 -15.5q7 0 11.5 -4.5t4.5 -11t-4.5 -11t-11.5 -4.5zM957.5 160q-6.5 0 -11 4.5t-4.5 10.5v71q0 6 4.5 10.5
t11 4.5t11 -4.5t4.5 -10.5v-71q0 -6 -4.5 -10.5t-11 -4.5zM65 178zM65.5 375q-6.5 0 -11 4.5t-4.5 10.5v70q0 7 4.5 11.5t11 4.5t11 -4.5t4.5 -11.5v-70q0 -6 -4.5 -10.5t-11 -4.5zM65 464zM65 464zM65.5 -44q-6.5 0 -11 4.5t-4.5 11.5v58q0 6 4.5 10.5t11 4.5t11 -4.5
t4.5 -10.5v-58q0 -7 -4.5 -11.5t-11 -4.5zM65 445q-6 0 -10.5 4.5t-4.5 11t4.5 11t10.5 4.5q23 0 39 16t16 38.5t-16 38t-39 15.5q-6 0 -10.5 4.5t-4.5 11t4.5 11t10.5 4.5q35 0 60 -25t25 -60t-25 -60t-60 -25zM65 232q-6 0 -10.5 4.5t-4.5 11t4.5 11t10.5 4.5q23 0 39 16
t16 38t-16 38t-39 16q-6 0 -10.5 4.5t-4.5 11t4.5 11t10.5 4.5q35 0 60 -25t25 -60t-25 -60t-60 -25zM65 19q-6 0 -10.5 4.5t-4.5 11t4.5 11t10.5 4.5q23 0 39 15.5t16 38t-16 38.5t-39 16q-6 0 -10.5 4.5t-4.5 11t4.5 11t10.5 4.5q35 0 60 -25t25 -60t-25 -60t-60 -25z
M65.5 160q-6.5 0 -11 4.5t-4.5 10.5v71q0 6 4.5 10.5t11 4.5t11 -4.5t4.5 -10.5v-71q0 -6 -4.5 -10.5t-11 -4.5zM487 113q5 24 5 58v52h-77q-31 0 -55 -4v39q24 -4 55 -4h77v25l-21 31h-56q-31 0 -55 -4v39q24 -4 55 -4h36l-81 125q-20 31 -32 46h57q6 -18 25 -49l92 -148
l92 148q20 34 25 49h56q-12 -15 -32 -46l-81 -125h37q31 0 55 4v-39q-24 4 -55 4h-56l-21 -31v-25h77q31 0 54 4v-39q-23 4 -54 4h-77v-52q0 -33 4 -58h-49z" />
    <glyph glyph-name="bangzhu" unicode="&#xe606;" 
d="M511.5 -148q-91.5 0 -174 35.5t-142.5 95.5t-95.5 143t-35.5 174t35.5 174t95.5 143t142.5 95.5t174 35.5t174 -35.5t142.5 -95.5t95.5 -143t35.5 -174t-35.5 -174t-95.5 -143t-142.5 -95.5t-174 -35.5zM511.5 -86q105.5 0 194.5 51.5t140.5 140.5t51.5 194t-51.5 194
t-140.5 141t-194.5 52t-194.5 -52t-140.5 -141t-51.5 -194t51.5 -194t140.5 -140.5t194.5 -51.5zM373 391q2 40 10.5 62.5t29.5 41t47 27.5t53 9q58 0 94.5 -33t36.5 -89q0 -28 -11 -48t-48 -54q-40 -39 -49 -57t-9 -61h-45q1 39 12 65t48.5 64.5t47 54.5t9.5 40
q0 37 -24 59t-64 22q-87 0 -95 -103h-43zM531 75h-50v53h50v-53z" />
    <glyph glyph-name="shouye" unicode="&#xe605;" 
d="M952 247q1 -5 1 -10v-368q0 -34 -27.5 -57.5t-60.5 -23.5h-221h-264h-221q-33 0 -60.5 23.5t-27.5 57.5v368q0 5 1 10q-33 38 -52.5 96.5t-19.5 109.5l212 359h600l212 -359q0 -51 -19.5 -109.5t-52.5 -96.5v0v0zM124 -131q0 -10 11.5 -18.5t23.5 -8.5h706q12 0 23.5 8.5
t11.5 18.5v339q-17 -7 -35 -7q-78 0 -127 36.5t-49 107.5q0 -71 -49.5 -107.5t-127.5 -36.5t-127.5 36.5t-49.5 107.5q0 -71 -49 -107.5t-127 -36.5q-18 0 -35 7v-339v0v0zM782 758h-5h-535l-189 -319q5 -65 37 -124.5t69 -59.5q21 0 39.5 3.5t39 12t32.5 27.5t12 47
q0 22 15.5 38t37.5 16t37.5 -16t15.5 -38q0 -28 12.5 -47t33 -28t39 -12t39.5 -3t39.5 3t39 12t33 28t12.5 47q0 22 15.5 38t37 16t37.5 -16t16 -38q0 -28 12 -47t32.5 -27.5t39 -12t39.5 -3.5q37 0 69 59.5t37 124.5l-189 319v0v0zM863 462h-702q-11 0 -18.5 7.5t-7.5 19
t7.5 19.5t18.5 8h702q11 0 18.5 -8t7.5 -19.5t-7.5 -19t-18.5 -7.5v0v0zM863 462z" />
    <glyph glyph-name="jiaogu" unicode="&#xe66b;" 
d="M949 190q-12 12 -33 18t-49 9t-38 5q-19 5 -39.5 13.5t-34.5 15.5t-37.5 20.5t-34.5 18.5q-57 30 -132 52q-6 2 -24.5 6.5t-25 7t-19 8.5t-21.5 13.5t-18 18.5q-14 18 -23.5 45.5t-13.5 70t-5.5 63.5t-1.5 73.5v52.5h-256q8 -55 -0.5 -138.5t-26.5 -141.5
q-4 -14 -20.5 -56.5t-21.5 -67.5q-8 -35 -10 -59t6.5 -54t30.5 -53q33 -32 112 -26q32 3 61.5 20t47.5 19q54 3 129 -20q86 -25 148 -22q23 2 64.5 16t63.5 15q34 3 113 -13q52 -11 82 3q13 6 23 17t13 24.5t-9 25.5zM241 465q29 67 39 148h35q-1 -5 -0.5 -34.5t1.5 -66
t2 -41.5q4 -15 6 -26t3.5 -24t0 -22t-6.5 -17t-13 -11.5t-21.5 -3.5t-31.5 6q-17 5 -25 13.5t-6.5 22t4.5 22.5t10 26q2 5 3 8zM312 251q-14 -1 -32 4q19 -23 3 -48t-50 -44.5t-59 -19.5q-22 -1 -34 17t-13 42q-2 32 23 52t60 23q13 1 27 -1q-7 5 -11 12q-29 47 30 60
q47 9 86 -5q4 -1 6 -3q19 -10 23.5 -25t-3 -28.5t-23 -23.5t-33.5 -12zM426 272q-13 -10 -27.5 -9t-20.5 18q-10 27 12.5 48t46.5 0q14 -14 9.5 -30t-20.5 -27zM442 251q-7 11 -2 28t16 28.5t25.5 15.5t28.5 -10q21 -23 0 -56q-19 -30 -44 -25q-15 2 -24 19zM727 179
q-14 -6 -20 -5t-18 13q-33 30 -102 43q-7 1 -21 -1.5t-23 -3t-19 5.5q-10 9 -5 34t19 29l9 1.5t7 -3t6 -5.5t5.5 -6.5t4.5 -7.5q10 -11 32 -18q3 -1 9 -4q60 -19 69 -21q2 0 18.5 -1.5t26 -4.5t15.5 -9q18 -21 -13 -36zM757 209q31 -9 47 -14q47 -18 44 -27q-3 -10 -45 -1
q-52 10 -51 32q1 5 5 10zM857 170q22 3 34 3q37 2 37 -6q-1 -9 -32 -14q-40 -7 -39 14v3z" />
    <glyph glyph-name="wode" unicode="&#xe663;" 
d="M770 609q-37 89 -107 142t-151 53t-151 -53t-107 -142q-45 -1 -74.5 -46t-29.5 -111q0 -63 28 -107t70 -49q34 -94 104 -152q43 -36 43 -90v-90h236v90q0 54 43 90q70 58 104 152q42 5 70.5 49t28.5 107q-2 66 -32.5 111t-74.5 46zM768 337h-4l-16 2l-5 -16
q-30 -91 -96 -148q-57 -48 -57 -121v-49h-154v49q0 73 -57 121q-65 52 -96 148l-7 16l-16 -2h-4q-26 0 -46 34.5t-20 82t20 82t46 34.5h8l19 -4l6 17q31 83 92 132.5t133 49.5t133.5 -49.5t91.5 -132.5l6 -17l17 4h8q26 0 46 -34.5t20 -81.5t-21 -82t-47 -35zM338 368
q0 -73 51 -123.5t123 -50.5t123 50.5t51 123.5v10h-348v-10zM666 357q-5 -60 -49 -101.5t-105 -41.5t-105 41.5t-49 101.5h308z" />
    <glyph glyph-name="youhuiquan1" unicode="&#xe61e;" 
d="M958 688q-1 43 -32 78t-73 40l-198 3q-10 1 -21 1q-42 0 -87 -16t-73 -41l-376 -337q-32 -29 -34.5 -72t26.5 -76l253 -282q31 -35 77 -35q40 0 70 26l376 338q32 28 54 79.5t21 94.5zM879 487q0 -29 -16.5 -67.5t-38.5 -58.5l-376 -337q-12 -10 -28 -10q-19 0 -31 13
l-253 283q-11 13 -10 30.5t14 28.5l376 337q19 17 53.5 29.5t64.5 12.5q7 0 13 -1l197 -3q20 -2 35.5 -19.5t16.5 -37.5zM685.5 676q-52.5 0 -90 -37t-37.5 -90t37.5 -90t90 -37t90 37t37.5 90t-37.5 90t-90 37zM685.5 494q-22.5 0 -39 16t-16.5 39t16.5 39t39 16t39 -16
t16.5 -39t-16.5 -39t-39 -16z" />
    <glyph glyph-name="wuliu" unicode="&#xe777;" 
d="M148 325h300q9 0 14.5 6t5.5 15t-6 14.5t-14 5.5h-300q-7 2 -13.5 -4t-6.5 -14q0 -9 6.5 -16t13.5 -7zM148 453h300q9 0 14.5 6t5.5 15t-6 14.5t-14 5.5h-300q-7 2 -13.5 -4t-6.5 -14q0 -9 6.5 -16t13.5 -7zM192 581h300q9 0 14.5 6t5.5 15t-6 14.5t-14 5.5h-300
q-9 0 -14.5 -6t-5.5 -14.5t5.5 -14.5t14.5 -6zM893 379l-169 238q-5 5 -15 5h-89v87q0 9 -6.5 15t-14.5 6h-343q-9 0 -14.5 -6.5t-5.5 -14.5t5.5 -14t14.5 -6h320v-64v-277q0 -9 6 -14.5t14 -5.5h256v-149h-46q-7 37 -36.5 61t-68 24t-68 -24t-37.5 -61h-174q-7 37 -36.5 61
t-68 24t-68 -24t-37.5 -61h-64q-9 0 -14.5 -6t-5.5 -14q0 -9 6 -15t14 -6h67q8 -36 37.5 -60t67.5 -24t67.5 24t37.5 60h174q8 -36 37.5 -60t67.5 -24t67.5 24t37.5 60h67q9 0 14.5 6.5t5.5 14.5v212q0 1 -1.5 4t-1.5 4zM320 92q-27 0 -45.5 18.5t-18.5 45.5t18.5 45.5
t45.5 18.5t45.5 -18.5t18.5 -45.5t-18.5 -45.5t-45.5 -18.5zM704 92q-27 0 -45.5 18.5t-18.5 45.5t18.5 45.5t45.5 18.5t45.5 -18.5t18.5 -45.5t-18.5 -45.5t-45.5 -18.5zM699 581l151 -212h-230v212h79z" />
    <glyph glyph-name="houtui" unicode="&#xe620;" 
d="M685 26q-9 0 -15 6l-352 352l352 352q6 6 15 6t15 -6t6 -14.5t-6 -15.5l-323 -322l323 -322q6 -7 6 -15.5t-6 -14.5t-15 -6z" />
    <glyph glyph-name="shoucang" unicode="&#xe6aa;" 
d="M734 828q-66 0 -124 -28t-98 -77q-41 49 -99 77t-124 28q-119 0 -203.5 -84.5t-84.5 -203.5q0 -66 28 -124.5t77 -98.5l234 -205l172 -170l186 172l243 225q81 83 81 201q0 119 -84.5 203.5t-203.5 84.5v0zM876 369q-153 -141 -218 -200q-29 -26 -66 -62.5t-60 -59.5
t-23 -24q-69 86 -137 149q-18 17 -66.5 60t-88 77.5l-39.5 34.5q-44 34 -74.5 88.5t-28.5 106.5q1 38 14.5 74.5t38.5 67.5t67.5 49.5t94.5 18.5q54 0 118 -37t101 -81q38 43 102.5 81t117.5 39q103 1 161 -60t60 -154q2 -94 -74 -168v0zM879 375z" />
    <glyph glyph-name="huiyuan" unicode="&#xe607;" 
d="M522 189v0l3 -10q-3 3 -3 10v0zM522 189zM512 205q3 -10 10 -16v0l-10 16v0zM512 205zM512 896q-138 0 -256 -69t-187 -187t-69 -256t69 -256t187 -187t256 -69t256 69t187 187t69 256t-69 256t-187 187t-256 69v0zM512 -74q-93 0 -178 36.5t-146 97.5t-97.5 146
t-36.5 178t36.5 178t97.5 146t146 97.5t178 36.5t178 -36.5t146 -97.5t97.5 -146t36.5 -178t-36.5 -178t-97.5 -146t-146 -97.5t-178 -36.5v0zM512 -74zM720 538h-83q-12 0 -20.5 -8.5t-8.5 -20.5t8.5 -20.5t20.5 -8.5h16l-128 -301q-3 0 -3 7l-160 294h28q12 0 20.5 8.5
t8.5 20.5t-8.5 20.5t-20.5 8.5h-115q-12 0 -20.5 -8.5t-8.5 -20.5t8.5 -20.5t20.5 -8.5h16l179 -333q5 -12 16.5 -20.5t25.5 -8.5t25.5 8.5t16.5 20.5l153 333h13q12 0 20.5 8.5t8.5 20.5t-8.5 20.5t-20.5 8.5v0zM720 538z" />
    <glyph glyph-name="biaozhuanhuan" unicode="&#xe608;" 
d="M512 896q-139 0 -257 -68.5t-186.5 -186.5t-68.5 -257t68.5 -257t186.5 -186.5t257 -68.5t257 68.5t186.5 186.5t68.5 257t-68.5 257t-186.5 186.5t-257 68.5zM512 -83q-95 0 -181.5 37t-149 99.5t-99.5 149t-37 181.5t37 181.5t99.5 149t149 99.5t181.5 37t181.5 -37
t149 -99.5t99.5 -149t37 -181.5t-37 -181.5t-99.5 -149t-149 -99.5t-181.5 -37zM751 268l-217 123v316q0 4 -3 7.5t-8 3.5h-22q-5 0 -8 -3.5t-3 -7.5v-334q0 -3 2 -6q1 -4 4 -5l234 -132q9 -6 15 4l11 19q5 10 -5 15z" />
    <glyph glyph-name="dingdan" unicode="&#xe616;" 
d="M328 487h369v-42h-369v42zM328 303h226v-42h-226v42zM778 35h-532q-17 0 -32 7q-15 6 -26.5 17.5t-17.5 25.5q-6 15 -6 32v554q0 17 6 32t17.5 26.5t26.5 17.5t32 6h80v-41h-80q-17 0 -29 -12t-12 -29v-554q0 -17 12 -29t29 -12h532q17 0 29 12t12 29v554q0 17 -12 29
t-29 12h-80v41h80q17 0 32 -6t26.5 -17.5t17.5 -26.5t6 -32v-554q0 -17 -6 -32q-6 -14 -17.5 -25.5t-26.5 -17.5q-15 -7 -32 -7zM717 630h-410v134q0 21 15 36t36 15h53q15 28 42 45t59 17t59 -17t42 -45h53q21 0 36 -15t15 -36v-134zM348 671h328v93q0 4 -3 7t-7 3h-81
l-5 14q-8 21 -26.5 34.5t-41.5 13.5t-41.5 -13.5t-26.5 -34.5l-5 -14h-81q-4 0 -7 -3t-3 -7v-93z" />
    <glyph glyph-name="gouwuche" unicode="&#xe66c;" 
d="M995 690q-30 39 -74 39h-746l-8 59q-4 33 -29.5 55t-60.5 22h-42q-10 0 -16.5 -6.5t-6.5 -16t6.5 -16.5t16.5 -7h42q16 0 29.5 -9t15.5 -26l87 -664q4 -33 29.5 -52.5t60.5 -19.5h577q9 0 15.5 6.5t6.5 15.5t-6.5 15.5t-15.5 6.5h-577q-18 0 -30.5 9.5t-14.5 25.5l-7 56
h574q32 0 56 16.5t32 45.5l100 369q11 43 -14 76v0zM965 625l-100 -369q-7 -27 -44 -27h-580l-60 454h740q22 0 38 -20q12 -16 6 -38v0zM381 -40.5q0 -20.5 -14.5 -35t-35 -14.5t-35 14.5t-14.5 35t14.5 35t35 14.5t35 -14.5t14.5 -35zM856 -40.5q0 -20.5 -14.5 -35
t-35 -14.5t-35 14.5t-14.5 35t14.5 35t35 14.5t35 -14.5t14.5 -35z" />
    <glyph glyph-name="shouye1" unicode="&#xe629;" 
d="M236.5 418q12.5 0 22 9t9.5 22q0 83 46 145t127 88q11 4 17 14t4 21v7q0 19 14.5 32t35.5 13t36 -13t15 -32q0 -3 -1 -7q-2 -11 4 -21t18 -14q82 -25 127.5 -86t45.5 -147q0 -13 9 -22t22 -9t22.5 9t9.5 22q0 100 -51.5 175t-143.5 110q-4 41 -36.5 69.5t-76.5 28.5
t-76.5 -28.5t-35.5 -69.5q-91 -36 -143 -112t-52 -173q0 -13 9.5 -22t22 -9zM820 294v56q0 13 -9 22t-22 9t-22.5 -9t-9.5 -22v-68q0 -13 9 -22q80 -87 95 -116q0 -9 -6 -11.5t-27 -2.5h-631q-31 0 -33 14q16 29 96 116q8 9 8 22v68q0 13 -9 22t-22 9t-22 -9t-9 -22v-56
q-104 -114 -104 -146q0 -33 23 -56.5t72 -23.5h631q95 0 95 80q0 32 -103 146zM401 530q-13 0 -22 -9t-9 -22v-31q0 -13 9 -22t22 -9t22 9t9 22v31q0 13 -9 22t-22 9zM624 530q-13 0 -22 -9t-9 -22v-31q0 -13 9 -22t22 -9t22 9t9 22v31q0 13 -9 22t-22 9zM512.5 298
q29.5 0 52 15t34.5 33q7 11 4 23t-13.5 19.5t-23 4.5t-20.5 -13q-13 -20 -34 -20q-20 0 -33 19q-7 11 -19.5 14t-23.5 -4t-14 -19.5t4 -23.5q11 -18 34 -33t52.5 -15zM601.5 39q-11.5 6 -24 2.5t-18.5 -15.5q-15 -27 -46.5 -27t-46.5 27q-7 12 -19 15.5t-23.5 -2.5
t-15 -18.5t2.5 -23.5q15 -28 42.5 -44.5t59 -16.5t59 16.5t42.5 44.5q6 11 2.5 23.5t-15 18.5z" />
    <glyph glyph-name="icon" unicode="&#xe64b;" 
d="M512 271l-292 292q-9 9 -22 9t-22.5 -9t-9.5 -22t10 -22l314 -315q9 -9 22 -9t22 9l315 315q9 9 9 22t-9 22t-22.5 9t-22.5 -9z" />
    <glyph glyph-name="fenlei" unicode="&#xe6d5;" 
d="M673 440q20 -20 48 -20t48 20l106 106q20 19 20 47.5t-20 48.5l-106 106q-20 19 -48 19t-48 -19l-106 -106q-20 -20 -20 -48.5t20 -47.5zM607 611l97 97q7 7 17.5 7t17.5 -7l97 -97q7 -7 7 -17.5t-7 -17.5l-97 -97q-7 -7 -17.5 -7t-17.5 7l-97 97q-7 7 -7 17.5t7 17.5z
M808 350h-174q-36 0 -61.5 -25.5t-25.5 -61.5v-174q0 -36 25.5 -61.5t61.5 -25.5h174q36 0 61.5 25.5t25.5 61.5v174q0 36 -25.5 61.5t-61.5 25.5zM843 89q0 -15 -10 -25t-25 -10h-174q-14 0 -24 10t-10 25v174q0 14 10 24t24 10h174q15 0 25 -10t10 -24v-174zM391 350h-174
q-36 0 -61.5 -25.5t-25.5 -61.5v-174q0 -36 25.5 -61.5t61.5 -25.5h174q36 0 61.5 25.5t25.5 61.5v174q0 36 -25.5 61.5t-61.5 25.5zM425 89q0 -15 -10 -25t-24 -10h-174q-15 0 -25 10t-10 25v174q0 14 10 24t25 10h174q14 0 24 -10t10 -24v-174zM391 767h-174
q-36 0 -61.5 -25.5t-25.5 -61.5v-174q0 -36 25.5 -61.5t61.5 -25.5h174q36 0 61.5 25.5t25.5 61.5v174q0 37 -25.5 62t-61.5 25zM425 506q0 -14 -10 -24t-24 -10h-174q-15 0 -25 10t-10 24v174q0 15 10 25t25 10h174q14 0 24 -10t10 -25v-174z" />
    <glyph glyph-name="qiandao" unicode="&#xe6d1;" 
d="M223.5 739q11.5 0 19.5 8t8 19v39v63q0 12 -8 20t-19.5 8t-19.5 -8t-8 -20v-63v-38q0 -12 8 -20t19.5 -8zM569 350q2 -7 9 -10.5t14 0.5l39 21v-282q0 -6 4.5 -11t11.5 -5h46q6 0 10.5 5t4.5 11v352q0 7 -4.5 11.5t-10.5 4.5h-41q-4 0 -7 -2l-77 -41q-11 -6 -8 -18z
M800.5 739q11.5 0 19.5 8t8 19v39v63q0 12 -8 20t-19.5 8t-19.5 -8t-8 -20v-63v-38q0 -12 8 -20t19.5 -8zM268 84q40 -27 100 -27q70 0 107 36.5t37 85.5q0 30 -15 54.5t-41 38.5q43 30 43 81q0 41 -30 70.5t-87 29.5q-60 0 -102 -30q-9 -7 -5 -18l13 -35q3 -7 10 -9.5
t14 2.5q28 20 61 20q46 0 46 -37q0 -22 -20 -33t-43 -11h-26q-7 0 -11.5 -5t-4.5 -11v-36q0 -6 4.5 -10.5t11.5 -4.5h26q8 0 17.5 -1.5t24.5 -6.5t24.5 -17t9.5 -30q0 -22 -14 -36q-17 -17 -50 -17q-38 0 -70 20q-7 3 -14 0.5t-9 -9.5l-13 -36q-4 -11 6 -18zM928 836h-78
v-72q0 -20 -14.5 -34.5t-35 -14.5t-35 14.5t-14.5 34.5v72h-478v-72q0 -20 -14.5 -34.5t-35 -14.5t-35 14.5t-14.5 34.5v72h-78q-40 0 -68 -28t-28 -68v-772q0 -40 28 -68t68 -28h832q40 0 68 28t28 68v772q0 40 -28 68t-68 28zM962 -32q0 -14 -10 -24t-24 -10h-832
q-14 0 -24 10t-10 24v630h900v-630z" />
    <glyph glyph-name="unie61d" unicode="&#xe61c;" 
d="M368 750.5q0 -60.5 -42.5 -103t-102.5 -42.5t-102.5 42.5t-42.5 103t42.5 103t102.5 42.5t102.5 -42.5t42.5 -103zM565 823.5q0 -29.5 -21.5 -51t-51.5 -21.5t-51 21.5t-21 51t21 51t51 21.5t51.5 -21.5t21.5 -51zM775 805.5q0 -30.5 -21 -52t-51 -21.5t-51.5 21.5
t-21.5 52t21.5 51.5t51.5 21t51 -21t21 -51.5zM946 710.5q0 -30.5 -21.5 -51.5t-51.5 -21t-51 21t-21 51.5t21 52t51 21.5t51.5 -21.5t21.5 -52zM304 524q2 4 6 13.5t21.5 32t40.5 42t64.5 37.5t91.5 25h10q5 0 24 -1t38 -4t45.5 -11t50 -19.5t48.5 -31t44.5 -44t35.5 -61
t24 -79.5q8 -44 9 -94.5t-8.5 -111.5t-31 -111.5t-64.5 -90.5t-103 -53q-13 -3 -32.5 -2t-41 3.5t-42.5 13t-37 25t-24 40t-3 57.5q2 11 10 39t12 49t0 50t-22 52q-7 10 -27.5 21.5t-41.5 21.5t-44.5 26.5t-38 37t-21 53.5t6.5 75v0z" />
    <glyph glyph-name="shouyeshoucangtubiao01" unicode="&#xe60f;" 
d="M724 718q9 0 16 -2q66 -5 115.5 -60.5t56.5 -141.5v-45q-7 -89 -89 -178.5t-288 -230.5q-26 -17 -48 0q-204 140 -286.5 230t-91.5 181l1 45q7 83 55.5 138t114.5 62q13 2 35 2q56 0 92 -19t86 -73l18 -20l18 21q44 51 81.5 71t95.5 20v46q-69 0 -116 -24.5t-98 -84.5
l36 1q-56 61 -101 84.5t-112 23.5q-26 0 -42 -3q-82 -9 -142 -75.5t-69 -167.5v-49q10 -105 97 -202t300 -244q22 -16 50.5 -16t52.5 16q216 148 302.5 244.5t94.5 199.5v49q-9 103 -69.5 171t-143.5 74l-2 -22l5 22q-10 2 -23 2q-7 1 -20 1v-46h18v0zM724 718z" />
    <glyph glyph-name="mainPage" unicode="&#xe609;" 
d="M839 -42v509h-110v25h226v-25h-91v-509h-25v0zM160 -42v509h-91v25h226v-25h-110v-509h-25v0zM702 553q-1 0 -1 2v26h-2v56h-374v-66l-2 -3v-13q0 -2 -1 -2h-208q-23 0 -46.5 7.5t-33 12t-13.5 7.5l-3 2h-4q-2 0 -2 2v29q48 -28 99 -28h186v193h-58v32h84v-32h2v-114h374
v124l2 3v19h84v-32h-58v-193h186q51 0 99 28v-29q0 -2 -1 -2h-4l-4 -2q-4 -3 -13.5 -8t-33.5 -12t-46 -7h-208z" />
    <glyph glyph-name="gouwuche1" unicode="&#xe60b;" 
d="M238 181v0h2q3 0 7 2h7h631q19 0 25 19l113 368q3 10 -2 19.5t-15.5 12.5t-20 -2t-12.5 -15l-12 -40q-4 2 -9 3l-18 3l-85 212q-4 10 -13 14t-19 2l-230 -71l-85 139q-7 11 -20 12.5t-22 -8.5l-175 -198l-58 9l-13 161q0 9 -6.5 15.5t-15.5 7.5l-162 25q-11 2 -19.5 -4.5
t-10 -17t4.5 -19t17 -10.5l142 -22l47 -572q-27 -12 -43 -36.5t-16 -53.5q0 -41 30 -70t72 -29h11q-12 -22 -12 -46q0 -40 28 -68t67.5 -28t68 28t28.5 68q0 24 -13 46h226q-12 -22 -12 -46q0 -40 28 -68t68 -28t68 28t28 68q0 24 -12 46h59q11 0 18.5 8t7.5 18.5t-7.5 18
t-18.5 7.5h-631q-21 0 -35.5 14t-14.5 33q0 16 9.5 28t24.5 17zM348.5 -53q-18.5 0 -31.5 13t-13 31t13 31t31.5 13t31.5 -13t13 -31t-13 -31t-31.5 -13zM741.5 -53q-18.5 0 -31.5 13t-13 31t13 31t31.5 13t31.5 -13t13 -31t-13 -31t-31.5 -13zM810 722l64 -162l-217 35
l-42 68zM476 790l113 -185l-243 39zM944 497h2l-80 -262h-604l-30 374z" />
    <glyph glyph-name="qiandao1" unicode="&#xe6e1;" 
d="M872 827h-85v-69q0 -20 -16 -33.5t-38.5 -13.5t-38 13.5t-15.5 33.5v69h-334v-69q0 -20 -15.5 -33.5t-38 -13.5t-38.5 13.5t-16 33.5v69h-85q-44 0 -74.5 -27t-30.5 -65v-743q0 -38 30.5 -65t74.5 -27h720q44 0 74.5 27t30.5 65v743q0 38 -30.5 65t-74.5 27v0zM909 6
q0 -12 -10.5 -21t-26.5 -9h-720q-16 0 -26.5 9t-10.5 21v560h794v-560v0zM292 729q11 0 18.5 5.5t7.5 14.5v78v46q0 8 -7.5 14t-18.5 6t-18.5 -6t-7.5 -14v-46v-78q0 -9 7.5 -14.5t18.5 -5.5v0zM732 729q11 0 18.5 5.5t7.5 14.5v124q0 8 -7.5 14t-18.5 6t-18.5 -6t-7.5 -14
v-124q0 -9 7.5 -14.5t18.5 -5.5zM750 398l-254 -293q-10 -11 -24 -11t-25 11l-142 165q-10 11 -10 27.5t10 28.5t24.5 12t24.5 -12l118 -136l229 264q10 12 24.5 12t24.5 -11.5t10 -28t-10 -28.5z" />
    <glyph glyph-name="wode1" unicode="&#xe60a;" 
d="M844 -19h-675l-2 20q-3 41 -51 382q-49 8 -82 46.5t-33 89.5q0 56 39.5 96t95.5 40t95.5 -40t39.5 -96v-10l79 -33l67 135q-41 40 -41 98q0 57 39.5 97t95.5 40t95.5 -40t39.5 -97q0 -58 -41 -98l67 -135l79 33v10q0 56 39.5 96t95.5 40t95.5 -40t39.5 -96
q0 -51 -33 -89.5t-82 -46.5zM208 25h599l61 400h19q37 1 64 28t27 66q0 38 -27 65.5t-65 27.5t-65 -27.5t-27 -65.5q0 -10 2 -20l4 -17l-150 -61l-99 202l14 11q38 28 38 75q0 39 -27 66.5t-65 27.5t-65 -27.5t-27 -66.5q0 -47 38 -75l14 -11l-99 -202l-150 61l4 17
q2 10 2 20q0 38 -27 65.5t-65 27.5t-65 -27.5t-27 -65.5q0 -39 27 -66t64 -28h19l3 -18q51 -376 51 -382z" />
    <glyph glyph-name="shoucang1" unicode="&#xe610;" 
d="M727 851q-127 0 -215 -119q-88 119 -215 119q-79 0 -146.5 -43t-107 -116t-39.5 -159q0 -38 7 -72t22 -66t26 -50.5t30 -48.5q18 -28 42 -57.5t50 -57t54 -54.5t56 -51.5t53.5 -45.5t49 -39t40 -30.5t28.5 -21t12 -9.5q17 -13 38 -13t38 13q0 1 10 8.5t23.5 17t33.5 25.5
t41.5 32.5t47 38.5t49.5 44t50 47t48.5 49.5t44 51.5t37.5 52q19 30 29.5 48.5t26 51t22.5 66t7 71.5q0 86 -39.5 159t-107 116t-146.5 43v0v0v0zM894 337q-25 -40 -59.5 -81.5t-69.5 -76.5t-72 -67.5t-69 -57.5t-57.5 -43.5t-39.5 -28.5l-15 -9q-11 7 -29 19.5t-69.5 52
t-97 79.5t-98 98.5t-85.5 112.5q-27 44 -38.5 65t-24 60t-12.5 77q0 105 68 179t165 74q69 0 120.5 -40.5t79.5 -110.5v1v0q5 -16 20.5 -16t19.5 16h1q28 69 79 110t120 41q97 0 165.5 -74.5t68.5 -179.5q0 -55 -18 -99.5t-53 -100.5v0v0v0zM894 337z" />
    <glyph glyph-name="shouye2" unicode="&#xe621;" 
d="M1002 694l-69 177q-4 11 -14 18t-21 7h-735q-11 0 -21 -7t-14 -18l-70 -182q-22 -57 -7 -117t62 -103v-560q0 -15 11.5 -26t26.5 -11h759q15 0 26 11t11 26v565q47 36 62.5 97t-7.5 123zM128 661l60 160h685l60 -155q15 -41 4 -81.5t-44 -60.5q-2 0 -3 -1.5t-2 -1.5
q-3 0 -5.5 2t-5.5 6.5t-5 8t-6 9.5l-6 9q-10 21 -19 34.5t-29 27t-44.5 13.5t-44 -13.5t-29 -27t-19.5 -34.5q-17 -35 -27 -35q-2 0 -4.5 2t-5.5 6.5t-5.5 8t-6 9.5t-6.5 9q-10 21 -19 34.5t-29 27t-44 13.5t-44 -13.5t-29 -27t-20 -34.5q-17 -35 -27 -35q-2 0 -4.5 2
t-5.5 6.5t-5.5 8t-6 9.5t-5.5 9q-10 20 -19.5 33.5t-29.5 26.5t-44 13q-18 0 -33 -6.5t-27 -21t-17 -23t-15 -27.5q-19 -37 -25 -37q-3 0 -8 2q-29 33 -39 70.5t4 74.5zM648 -53h-235v295q0 7 8 7h222q2 0 4.5 -2t2.5 -5v-295h-2zM698 -53v295q0 24 -16.5 40.5t-41.5 16.5
h-222q-24 0 -40.5 -16.5t-16.5 -40.5v-295h-175v497q19 3 35.5 17t24 26t17.5 32q19 37 25 37q2 0 4.5 -2t5.5 -6t5.5 -8t6 -9.5t6.5 -9.5q9 -19 18.5 -32.5t29.5 -26.5t44 -13t44 14t29 27.5t19 33.5q18 35 28 35q2 0 4.5 -2t5.5 -6t5.5 -8t6 -10t5.5 -9q11 -20 20 -33.5
t29 -27.5t44 -14t44 14t29 27.5t19 33.5q18 35 28 35q2 0 4.5 -2t5.5 -6t5.5 -8t6 -10t5.5 -9q8 -15 13 -23t15 -20.5t22.5 -19.5t27.5 -10v-504h-175z" />
    <glyph glyph-name="wode2" unicode="&#xe676;" 
d="M825 666q16 37 91 86q7 4 6.5 9t-9.5 6q-37 7 -56 7q-74 0 -112 -39q-106 70 -233 70q-114 0 -211.5 -56t-153.5 -153t-56 -212q0 -114 56.5 -211t153.5 -153.5t211 -56.5t211 56.5t153.5 153.5t56.5 211q0 163 -108 282zM428 517q0 -7 -6.5 -12t-13.5 -5q-15 0 -21 20
q0 1 -1 2q-1 3 -1 4q-16 26 -45 27q-28 -1 -44 -27q0 -1 -1 -3.5t-1 -3.5q-6 -19 -21 -19q-8 0 -14 5t-6 12q0 5 6 18q11 27 34 40t47 14h2q25 -1 47.5 -14t32.5 -40q6 -14 6 -18zM603 535q11 27 34 40t47 14h2q24 -1 47 -14t34 -40q6 -14 6 -18q0 -7 -6.5 -12t-13.5 -5
q-15 0 -22 20v2q-1 3 -2 4q-15 26 -44 27q-29 -1 -44 -27q-1 -1 -1.5 -3.5t-1.5 -3.5q-6 -19 -21 -19q-8 0 -14 5t-6 12q0 5 6 18z" />
    <glyph glyph-name="leimupinleifenleileibie" unicode="&#xe72b;" 
d="M315 345h-157q-65 0 -111.5 -46.5t-46.5 -111.5v-157q0 -65 46.5 -111.5t111.5 -46.5h157q65 0 111.5 46.5t46.5 111.5v157q0 65 -46.5 111.5t-111.5 46.5zM394 30q0 -33 -23 -56t-56 -23h-157q-33 0 -56 23t-23 56v157q0 33 23 56t56 23h157q33 0 56 -23t23 -56v-157z
M866 896h-157q-65 0 -111.5 -46.5t-46.5 -111.5v-157q0 -65 46.5 -111.5t111.5 -46.5h157q65 0 111.5 46.5t46.5 111.5v157q0 65 -46.5 111.5t-111.5 46.5zM945 581q0 -33 -23 -56t-56 -23h-157q-33 0 -56 23t-23 56v157q0 33 23 56t56 23h157q33 0 56 -23t23 -56v-157v0z
M866 345h-157q-65 0 -111.5 -46.5t-46.5 -111.5v-157q0 -65 46.5 -111.5t111.5 -46.5h157q65 0 111.5 46.5t46.5 111.5v157q0 65 -46.5 111.5t-111.5 46.5zM945 30q0 -33 -23 -56t-56 -23h-157q-33 0 -56 23t-23 56v157q0 33 23 56t56 23h157q33 0 56 -23t23 -56v-157v0z
M315 896h-157q-65 0 -111.5 -46.5t-46.5 -111.5v-157q0 -65 46.5 -111.5t111.5 -46.5h157q65 0 111.5 46.5t46.5 111.5v157q0 65 -46.5 111.5t-111.5 46.5zM394 581q0 -33 -23 -56t-56 -23h-157q-33 0 -56 23t-23 56v157q0 33 23 56t56 23h157q33 0 56 -23t23 -56v-157z" />
    <glyph glyph-name="tixing" unicode="&#xe604;" 
d="M449 217q0 -11 7 -18q8 -7 18 -7q7 0 12 3l-34 34q-3 -6 -3 -12zM620 509q-19 19 -45 25q-39 8 -87 -24q-14 -9 -29 -21l-7 -4q-39 -30 -62 -43q-23 -15 -62 -12q-14 1 -21 0l230 -231q2 6 2 19v1q1 39 14 60v0q14 22 43 62q1 2 8.5 12t9.5 12.5t8.5 12t8.5 14t6.5 13
t5.5 14.5t3 14t1.5 15.5t-2.5 14.5q-5 26 -25 46zM523 755q-101 0 -186.5 -49.5t-135.5 -135t-50 -186.5t50 -187t135.5 -135.5t186.5 -49.5t186.5 49.5t135.5 135.5t50 187t-50 186.5t-135.5 135t-186.5 49.5zM711 523q-17 -16 -40 -16q9 -18 13 -35q2 -13 2 -26t-1.5 -23
t-7 -23t-9 -21t-12.5 -21.5t-13.5 -20t-14.5 -19.5q-26 -35 -41 -60v0q-8 -12 -9 -40v-1q-1 -42 -22 -64q-6 -6 -14 -6t-14 6v0l-13 13q-19 -14 -41 -14q-27 0 -46 19t-19 46q0 23 15 40l-164 164q-5 5 -5 13.5t5 13.5l1 1q11 11 23.5 16.5t23.5 5t23 -0.5q26 -3 38 5
q21 13 60 41l6 5q17 12 31 21q62 42 117 30q16 -4 31 -11v2q0 24 16.5 40.5t40.5 16.5q23 0 40 -17q17 -16 17 -40q0 -23 -17 -40zM671 597q-14 0 -23.5 -10t-9.5 -23.5t9 -23.5q10 -10 24 -10q13 0 23 9.5t10 23.5t-10 24t-23 10z" />
    <glyph glyph-name="shoucang2" unicode="&#xe501;" 
d="M937 627q-22 52 -62 92t-92 62q-54 22 -112 22q-87 0 -159 -47q-72 47 -159 47q-58 0 -112 -22q-52 -22 -92 -62t-62 -92q-22 -54 -22 -112q0 -99 70 -208q52 -81 143 -165q101 -95 203 -159l31 -19l31 19q102 64 203 159q91 84 143 165q70 109 70 208q0 58 -22 112z" />
    <glyph glyph-name="houtui1" unicode="&#xe7e2;" 
d="M750 876q15 0 25 -10q16 -16 -29 -59l-2 -2l-421 -413l426 -426q46 -46 28 -65q-23 -23 -52 6l-455 455q-13 13 -13 30t13 30l451 442q12 12 29 12v0z" />
    <glyph glyph-name="bangzhu1" unicode="&#xe68e;" 
d="M512 31h-4q-96 0 -177.5 47.5t-128.5 128.5t-47 177t47 177.5t128.5 128.5t177.5 47h4q95 -1 175.5 -48.5t127 -128.5t46.5 -176t-46.5 -176t-127 -128.5t-175.5 -48.5zM512 -42q116 0 214 57t155 155t57 214t-57 214.5t-155 155.5t-214 57t-214.5 -57t-155.5 -155.5
t-57 -214.5t57 -214t155.5 -155t214.5 -57zM623 585q38 -32 38 -90q0 -46 -24 -77q-8 -10 -53 -50q-17 -13 -27 -33q-10 -19 -10 -40v-2v-10h-68v10q0 37 13 61q12 25 72 78l10 12q18 23 18 46q0 33 -18 52q-19 19 -54 19q-43 0 -62 -27q-17 -23 -17 -64h-67q0 69 40 109
t110 40q62 0 99 -34zM546 236q14 -12 14 -32q0 -19 -14 -33q-14 -13 -32 -13h-1q-20 0 -33 13t-13 32v1q0 20 13 32t33 12q21 0 33 -12z" />
    <glyph glyph-name="wuliu1" unicode="&#xe50c;" 
d="M957 518q-56 -125 -153 -211q-18 -15 -37 -29q-4 -67 -52 -135q-40 -57 -110 -114q-76 -61 -158 -103q-6 -3 -12 -3v0q-13 0 -20 11q-13 18 2 33q24 24 48 66q41 74 46 152q-46 18 -113 85t-85 113q-78 -5 -151 -46q-43 -24 -67 -48q-7 -7 -18 -7v0v0q-8 0 -15 5
q-17 12 -8 32q43 82 104 158q56 70 113 110q68 48 135 52q14 19 29 37q86 98 211 153q152 67 352 67v0h26v-26q0 -200 -67 -352zM708 239q-77 -44 -146 -57q-4 -77 -40 -151q152 105 186 208zM159 394q74 36 151 40q13 69 57 146q-103 -34 -208 -186zM474 642
q-43 -48 -71 -103.5t-36 -85.5t-8 -43q0 -11 20 -39q21 -31 55 -65t65 -55q28 -21 39 -21q13 0 43 8.5t85.5 36.5t103.5 71v0q96 84 147 211t55 287q-160 -4 -287 -55t-211 -147zM691 435q-53 0 -90.5 37.5t-37.5 90.5t37.5 90.5t90.5 37.5t90.5 -37.5t37.5 -90.5
t-37.5 -90.5t-90.5 -37.5zM691 640q-32 0 -54.5 -22.5t-22.5 -54.5t22.5 -54.5t54.5 -22.5t54.5 22.5t22.5 54.5t-22.5 54.5t-54.5 22.5zM248 233q42 0 77 -36q46 -45 34 -99q-26 -116 -324 -224q-5 -2 -9 -2v0q-11 0 -18 8q-12 11 -6 26q119 327 246 327zM234 25
q66 46 75 84q6 27 -20 52q-20 21 -41 21v0q-39 0 -86 -65q-46 -62 -92 -175q103 41 164 83v0z" />
    <glyph glyph-name="jiaopu" unicode="&#xe614;" horiz-adv-x="1461" 
d="M469 192l152 496l-253 79l-254 -84l160 -491q1 4 3 9.5t10 20.5t17.5 26t26.5 20.5t36.5 9.5t37 -9t29 -21.5t19.5 -25t12 -21.5zM635 707q-16 20 -41 20v0h-54h-4h-4l12 45q1 3 1 7q0 10 -7.5 18t-18.5 8q-20 0 -25 -19l-11 -39l-65 35q-22 12 -48 12q-29 0 -53 -14
l-63 -37l-12 44q-5 19 -25 19q-11 0 -18.5 -7.5t-7.5 -18.5q0 -4 1 -7l13 -45h-63v0q-25 0 -41 -20q-11 -14 -11 -32q0 -7 2 -14l160 -505v-77q0 -49 34 -83t82.5 -34t82.5 34t34 83v77l160 506q1 6 1 12q0 18 -11 33v-1zM433 79q0 -27 -19 -46t-46 -19t-46 19t-19 46v103
q0 27 19 46t46 19t46 -19t19 -46v-103zM460 253q-35 46 -92 46t-92 -45l-134 422h77l42 -154q6 -19 26 -19q10 0 17.5 7.5t7.5 18.5q0 4 -1 7l-42 156l3 1l72 42q12 7 25.5 7t25.5 -7l75 -40l-44 -159q-1 -3 -1 -7q0 -11 7.5 -18.5t18.5 -7.5q19 0 25 19l43 156q11 -3 24 -3
h52zM1117 192l152 496l-253 79l-254 -84l161 -491q1 4 2.5 9.5t9.5 20.5t17.5 26t26.5 20.5t36.5 9.5t37.5 -9t29 -21.5t19.5 -25t11.5 -21.5zM1283 707q-16 20 -41 20v0h-53h-4.5h-4.5l12 45q1 3 1 7q0 10 -7.5 18t-18.5 8q-19 0 -25 -19l-10 -39l-66 35q-22 12 -48 12
q-29 0 -53 -14l-63 -37l-12 44q-5 19 -25 19q-11 0 -18.5 -7.5t-7.5 -18.5q0 -4 1 -7l13 -45h-63v0q-25 0 -41 -20q-11 -14 -11 -32q0 -7 2 -14l160 -505v-77q0 -49 34 -83t82.5 -34t82.5 34t34 83v77l160 506q1 6 1 12q0 18 -11 33v-1zM1081 79q0 -27 -19 -46t-46 -19
t-46 19t-19 46v103q0 27 19 46t46 19t46 -19t19 -46v-103zM1108 253q-34 46 -91.5 46t-92.5 -45l-134 422h77l43 -154q5 -19 25 -19q10 0 18 7.5t8 18.5q0 4 -1 7l-43 156l3 1l73 42q11 7 24.5 7t25.5 -7l75 -40l-44 -159q-1 -3 -1 -7q0 -11 7.5 -18.5t18.5 -7.5q19 0 25 19
l43 156q11 -3 24 -3h52z" />
    <glyph glyph-name="biao" unicode="&#xe650;" 
d="M540 789v-42q109 -5 200.5 -62t144.5 -151.5t53 -204.5q0 -114 -56 -210.5t-152.5 -152.5t-210.5 -56t-210.5 56t-152.5 152.5t-56 210.5q0 109 51.5 202t141 150.5t196.5 65.5v42q-119 -7 -218 -69t-156.5 -165t-57.5 -223q0 -93 36.5 -178t97.5 -146.5t146 -97.5
t178.5 -36t178 36t146 97.5t97.5 146.5t36 178q0 120 -57.5 223t-157 165.5t-218.5 68.5zM305 896h184v-59h-184v59zM540 896h187v-59h-187v59zM540 789v48h-51v-48q13 1 26 1t25 -1zM519 748q11 0 21 -1v42q-12 1 -25 1q-12 0 -26 -1v-42q15 1 30 1zM489 747v-34h51v34
q-10 1 -21 1q-15 0 -30 -1zM489 896h51v-59h-51v59zM489 298h51v-61h-51v61zM489 655h51v-298h-51v298zM540 357h306v-59h-306v59zM429 357h60v-59h-60v59zM489 357h51v-59h-51v59z" />
    <glyph glyph-name="shouye-copy" unicode="&#xe502;" 
d="M371 256v0v1q-52 40 -75 84t-23 101q0 13 -9 22t-22 9t-22 -9t-9 -22q0 -123 94 -211q-73 -57 -115.5 -118.5t-62.5 -137.5q-3 -12 3.5 -23.5t18.5 -14.5q4 -1 8 -1q11 0 19.5 6.5t10.5 16.5q19 73 63 131t123 114q10 8 12.5 20.5t-5.5 23.5q-3 5 -9 8zM898 -25
q-20 76 -62 137t-113 117q96 88 96 213q0 13 -9 22t-22 9t-22 -9t-9 -22q0 -57 -24 -102t-75 -84q-7 -4 -11 -10q-8 -10 -6 -23t13 -20q78 -56 121 -113t63 -131q2 -10 10.5 -16.5t19.5 -6.5q4 0 8 1q12 3 18.5 14.5t3.5 23.5v0zM237.5 507q12.5 2 20 13t5.5 23
q-1 4 -1.5 10.5t0 25t4 36.5t13 40.5t24.5 40.5q62 73 209 73t209 -73q16 -18 25.5 -40.5t13 -40.5t4 -36.5t0 -25.5t-1.5 -10q-2 -12 5.5 -23t20.5 -13h5q11 0 20 7t11 19q1 5 2 14.5t0 33.5t-5.5 47.5t-17.5 53t-33 54.5q-81 96 -258 96t-257 -96q-21 -25 -34 -55t-17 -53
t-4.5 -47t0 -33.5t1.5 -14.5q3 -13 13.5 -20.5t23 -5.5zM401 529q-13 0 -22 -9t-9 -22v-33q0 -13 9 -22.5t22 -9.5t22.5 9.5t9.5 22.5v33q0 13 -9.5 22t-22.5 9zM623.5 529q-12.5 0 -22 -9t-9.5 -22v-33q0 -13 9.5 -22.5t22 -9.5t22 9.5t9.5 22.5v33q0 13 -9.5 22t-22 9z
M589.5 397q-10.5 7 -23 4.5t-20.5 -13.5q-13 -20 -34 -20q-20 0 -33 20q-7 11 -19.5 13.5t-23.5 -4t-14 -19t4 -23.5q11 -18 34 -33.5t52.5 -15.5t52 15.5t34.5 32.5q7 11 4 23.5t-13.5 19.5z" />
    <glyph glyph-name="gengduo1" unicode="&#xe6d2;" 
d="M186.5 291q38.5 0 65.5 27.5t27 65.5t-27 65.5t-65.5 27.5t-66 -27.5t-27.5 -65.5t27.5 -65.5t66 -27.5zM512 291q38 0 65.5 27.5t27.5 65.5t-27.5 65.5t-65.5 27.5t-65.5 -27.5t-27.5 -65.5t27.5 -65.5t65.5 -27.5zM837.5 291q38.5 0 66 27.5t27.5 65.5t-27.5 65.5
t-66 27.5t-65.5 -27.5t-27 -65.5t27 -65.5t65.5 -27.5z" />
    <glyph glyph-name="gengduo2" unicode="&#xe617;" 
d="M557 -8q-13 0 -22.5 9.5t-9.5 22.5t10 23l337 337l-337 337q-10 10 -10 23t9.5 22.5t22.5 9.5t23 -9l360 -360q9 -10 9 -23t-9 -23l-360 -360q-10 -9 -23 -9z" />
    <glyph glyph-name="bangzhu2" unicode="&#xe633;" 
d="M511 833q-91 0 -174 -35.5t-143 -95.5t-95.5 -143t-35.5 -174t35.5 -174t95.5 -143t143 -95.5t174 -35.5t174 35.5t143 95.5t95.5 143t35.5 174t-35.5 174t-95.5 143t-143 95.5t-174 35.5zM783 113q-53 -53 -122 -82q-71 -30 -149.5 -30t-149.5 30q-69 29 -122 82
t-83 122q-30 71 -30 149.5t30 149.5q30 69 83 122t122 83q71 30 149 30t150 -30q69 -30 122 -83t82 -122q30 -71 30 -149t-30 -150q-29 -69 -82 -122zM642 610q-41 62 -130 62q-68 0 -108 -44q-32 -37 -39 -98q-4 -30 -1 -53q2 -13 12.5 -21t23.5 -6.5t21 12t7 23.5
q-2 16 0 38q5 41 24 62q20 23 60 23q55 0 77 -33t6 -71q-4 -11 -43 -46q-24 -22 -36 -34.5t-24.5 -33.5t-12.5 -41v-61q0 -13 9.5 -22.5t23 -9.5t22.5 9.5t9 22.5v61q0 7 13 22q10 13 40 40q48 45 58 68q13 31 10 65q-2 37 -22 66zM472 193q0 -17 12 -28.5t28.5 -11.5
t28 11.5t11.5 28.5t-11.5 28.5t-28 11.5t-28.5 -11.5t-12 -28.5z" />
    <glyph glyph-name="gengduo3" unicode="&#xe61f;" 
d="M248 -63l65 -65l480 482l-468 482l-67 -65l405 -416z" />
    <glyph glyph-name="shoucang3" unicode="&#xe639;" horiz-adv-x="1138" 
d="M823 846q47 0 101.5 -24.5t85.5 -58.5q32 -37 55.5 -97.5t23.5 -109.5t-23.5 -109.5t-55.5 -97.5l-30 -32l-411 -377l-410 377l-30 32q-33 37 -56 97.5t-23 109.5t23 109.5t56 97.5q31 34 85.5 58.5t100.5 24.5t100.5 -24.5t85.5 -58.5l32 -34q14 -16 36 -16t37 16l31 34
q31 34 85.5 58.5t100.5 24.5zM823 896q-55 0 -120 -29.5t-102 -70.5l-32 -34l-31 34q-37 41 -102.5 70.5t-120.5 29.5t-120.5 -29.5t-102.5 -70.5q-38 -42 -65 -112.5t-27 -127.5t27 -127.5t65 -113.5l32 -33l445 -410l446 410l31 33q38 43 65 113.5t27 127.5t-27 127.5
t-65 112.5q-37 41 -102 70.5t-121 29.5v0z" />
    <glyph glyph-name="icon-test" unicode="&#xe61d;" 
d="M849 667q10 2 16 9.5t6 17.5v110q0 12 -8 20t-20 8h-662q-12 0 -20 -8t-8 -20v-110q0 -11 7 -18.5t17 -9.5q7 -94 61.5 -170.5t139.5 -114.5q-84 -36 -138.5 -111t-61.5 -168q-11 -1 -18 -9t-7 -19v-110q0 -12 8 -20t20 -8h662q12 0 20 8t8 20v110q0 10 -6 18t-16 10
q-8 92 -62 167.5t-138 112.5q85 37 139.5 113.5t60.5 171.5zM209 776h606v-54h-606v54zM815 -8h-606v54h2h604v-54zM793 102h-559q10 102 84 173.5t176 77.5h19h19q102 -6 176 -77.5t85 -173.5zM532 410h-19h-19q-103 7 -177.5 80t-83.5 176h560q-9 -103 -83 -176t-178 -80z
" />
    <glyph glyph-name="fenlei1" unicode="&#xe682;" 
d="M481 749q0 31 -22 53t-53 22h-247q-32 0 -54 -22t-22 -53v-247q0 -32 22 -54t54 -22h246q31 0 53.5 22t22.5 54v247v0zM441 495q0 -12 -8 -20.5t-20 -8.5h-261q-12 0 -20.5 8.5t-8.5 20.5v261q0 12 8.5 20.5t20.5 8.5h261q12 0 20.5 -8.5t8.5 -20.5v-261h-1zM481 297
q0 31 -22 53.5t-53 22.5h-247q-32 0 -54 -22.5t-22 -53.5v-246q0 -32 22 -54t54 -22h246q31 0 53.5 22t22.5 54v246v0zM441 43q0 -12 -8 -20.5t-20 -8.5h-261q-12 0 -20.5 8.5t-8.5 20.5v262q0 12 8.5 20t20.5 8h261q12 0 20.5 -8t8.5 -20v-262h-1zM932 749q0 31 -22 53
t-53 22h-247q-31 0 -53 -22t-22 -53v-247q0 -32 22 -54t53 -22h247q31 0 53 22t22 54v247zM893 495q0 -12 -8.5 -20.5t-20.5 -8.5h-261q-12 0 -20.5 8.5t-8.5 20.5v261q0 12 8.5 20.5t20.5 8.5h261q12 0 20.5 -8.5t8.5 -20.5v-261zM595 311q-55 -55 -55 -132t55 -131
q54 -54 131 -54t132 54q54 55 54 132t-54.5 131t-131.5 54t-131 -54zM829 76q-42 -43 -102.5 -43t-103.5 42.5t-43 103t43 103.5t103.5 43t103 -43t42.5 -103t-43 -103zM956 -51q-6 -5 -14 -5t-14 5l-95 95q-6 6 -6 14t6 14t14 6t14 -6l95 -95q6 -5 6 -13.5t-6 -14.5v0z" />
    <glyph glyph-name="maijiaxiu" unicode="&#xe612;" 
d="M964 227q-17 -37 -50.5 -82t-63.5 -72q-16 -16 -53 -41v0q-42 22 -58 32q-50 32 -72.5 66.5t-33 71t-14.5 74.5q-5 40 -18 77q-13 38 -42.5 76.5t-90.5 77.5q-30 18 -57 28q-26 9 -53 17q-27 7 -52 16q-26 9 -53.5 27t-57.5 48t-63 79q31 43 72 74q42 33 90 55
q46 22 96 33q48 11 97 11q108 0 202.5 -37.5t165.5 -102.5q29 -27 61.5 -71.5t48.5 -80.5q41 -88 41 -188t-42 -188zM231 679q26 -26 49 -41t42 -22q25 -8 50 -15q28 -8 56 -18q32 -11 68 -33q68 -44 103 -90q35 -45 51 -90q15 -43 20 -88q4 -34 13 -67q2 -9 7.5 -18
t14.5 -22t12 -17q5 -7 23 -21.5t33 -25.5l16 -11q4 2 10 6t23 18t32.5 29.5t33.5 41.5t30 54q37 77 37 166t-36 166q-15 33 -44 73t-55 64q-64 58 -149 92t-184 34q-41 0 -85 -10q-45 -10 -87 -29q-42 -20 -79 -49q-21 -16 -40 -36q19 -24 35 -41v0zM121 401q19 38 6 89
q-17 66 -19 83l-6 37q-2 -2 -5.5 -0.5t-13 -7t-18.5 -24.5q0 -2 -6.5 -19t-5.5 -26q-21 31 -19 61.5t21 55t50 41.5q35 -73 91 -113.5t139 -61.5q86 -21 141.5 -60t86.5 -112q15 -35 28.5 -121.5t40.5 -130.5q13 -21 94 -81.5t110 -89.5q-77 -43 -223 -49q-94 -3 -190 24
q36 86 21 157q-5 22 -16.5 33.5t-29.5 13.5t-33.5 0t-38.5 -8q-16 -4 -35 -12t-35.5 -12.5t-37.5 -4.5q-12 0 -19.5 4.5t-12 15.5t-6 20.5t-4 28.5t-4.5 31q-4 20 -10.5 35t-17.5 25t-19.5 16t-26 15.5t-27.5 15.5q-18 11 -26 18.5t-7 16t8 16t25 22.5q18 16 31 30zM722 -50
l-39 29q-18 13 -36 28q-44 34 -58 58q-21 33 -30.5 66t-19.5 94l-2 13q-9 56 -21 86q-25 58 -69.5 90t-123.5 52q-93 23 -155 68l7 -25l2 -6q14 -60 -2.5 -106t-66.5 -90q2 -1 7 -4q1 0 8.5 -4.5t9.5 -5.5q40 -22 60.5 -49t28.5 -72q2 -10 4 -22l1 -10l1 -9q2 -10 3 -16
q11 1 26 7q2 0 10.5 3.5t10.5 4.5q17 7 35 11q59 15 94 9q34 -5 56.5 -27.5t30.5 -58.5q13 -59 -5 -131q62 -12 122 -9q77 2 126 14q-6 5 -15 12z" />
    <glyph glyph-name="Ankerwebicon-" unicode="&#xe689;" horiz-adv-x="1330" 
d="M922 405q0 -15 -14 -20l-111 -43q-4 -2 -8 -2q-7 0 -12 4q-10 6 -10 21v120h1v0q1 8 7.5 13.5t15.5 4.5q16 -1 19 -18v-0.5v-0.5v-88l69 23v92v0v0v1.5v1.5q1 8 7 14t14 6q1 0 2 -1q8 0 13.5 -6t6.5 -14v-1v-107zM1088 750l-530 145v0h-0.5h-0.5v0q-1 1 -2 1h-2v0h-2v0
h-2v0q-1 -1 -2 -1l-527 -145v0h-1v0q-1 0 -1 -1h-1v0h-0.5h-0.5l-0.5 -0.5l-0.5 -0.5v0h-0.5h-0.5v-0.5v-0.5h-1l-0.5 -0.5l-0.5 -0.5v0h-1v-1h-1v-1h-0.5h-0.5v-1l-0.5 -0.5l-0.5 -0.5v0l-1 -1v0v-0.5v-0.5v0l-1 -1v0v-1v0l-1 -1v-1v0v0v-1v0l-0.5 -0.5l-0.5 -0.5v-1v0v-1
v0v-1.5v-0.5v0v-658q0 -15 15 -20l563 -179v0v0h1l1 -1h1.5h0.5h2h2h1h0.5h0.5l1 1h1h1h1l493 179q14 5 14 20v657q0 16 -15 21zM567 -78l-520 165v614l520 -150v-629zM1060 87l-450 -163v642q0 16 -16 21l-490 142l126 35l537 -140v-72q0 -8 6 -13.5t14 -5.5q9 -1 16 5.5
t7 15.5v86q0 5 -4.5 10.5t-10.5 7.5l-484 128l58 16l510 -137v-84v0q0 -9 5.5 -15t14.5 -7h1q9 0 15 5.5t7 13.5v2v102q0 16 -16 20l-456 123l102 28l508 -140v-626zM902 533q-1 1 -2 1q-8 0 -14 -6t-7 -14v-1.5v-1.5v-92l-69 -23v88q0 18 -19 19q-9 1 -16.5 -4.5
t-7.5 -13.5v-120q0 -15 10 -21q5 -4 12 -4q4 0 8 2l111 43q14 5 14 20v107q0 20 -20 21z" />
    <glyph glyph-name="xuanze" unicode="&#xe60c;" 
d="M659 339v90l-384 -384l90 -90l429 429l-429 429l-90 -90z" />
    <glyph glyph-name="wode3" unicode="&#xe505;" 
d="M539 -92q-147 0 -275 100q-140 110 -180 278q-20 87 -3.5 170.5t68.5 147.5q5 6 13 13t16.5 13.5t16 12t12 8.5t4.5 4q-23 46 -29 84t1 59t19.5 35.5t21.5 20t10 5.5q2 -4 6 -10t16 -21t25 -27t33.5 -23t40.5 -14l-0.5 -4t-1 -10.5t0 -13.5t2.5 -14t6 -12q13 -15 30 -15
q13 0 24 7q5 6 3.5 13t-5 14l-3.5 7q12 10 12 16l1.5 0.5t4 1t5.5 1.5t6.5 3l7 4t7 4.5t6.5 5.5q12 -3 25 -3h6q11 1 26 3.5t24 5.5l8 2h1q3 0 29 -13.5t43 -16.5q4 0 9.5 -1.5t9.5 -2.5q2 -1 0 -8.5t-3.5 -15t3.5 -12.5q18 -14 30 -14q6 0 6 7q0 2 -4.5 10t-7.5 15.5
t-1 7.5q1 1 2 1t4.5 -0.5t5.5 -0.5q23 0 41 31l9 2t22.5 7t28.5 12.5t28 20.5t19 29v0l4.5 -8.5t8 -24t3 -34.5t-12.5 -42.5t-37 -43.5q0 -1 5 -4t11 -7t8 -6q63 -53 96.5 -131.5t36.5 -173.5q2 -90 -28.5 -172.5t-85.5 -145.5q-112 -127 -274 -136q-11 -1 -21 -1v0v0v0z
M546 -69q9 0 18 1q150 8 255 129q53 62 81.5 142t26.5 164q-3 91 -34.5 165.5t-87.5 122.5q-1 2 -11 8q-9 6 -14.5 10.5t-11.5 14.5t-7 22l-2 26l20 17l12 12q-12 -4 -25 -8q-10 -13 -22 -22v-2q0 -25 -17 -42t-41 -17q-30 0 -63 26q-19 15 -23 40q-18 6 -45 21l-1 1
q-32 -7 -54 -9q-6 -1 -11 -1q-6 0 -13 1l-6 -4q4 -37 -25 -58q-25 -19 -55 -19q-42 0 -71 35q-18 21 -21 53q-43 19 -80 60q-19 -79 5 -127l8 -12t8 -14t-1.5 -14.5t-17.5 -19.5q-38 -27 -48 -39q-46 -58 -61.5 -135.5t3.5 -160.5q38 -163 172 -270q121 -97 260 -97v0z
M257 96q21 0 56 6q76 13 118.5 34.5t67.5 55.5t51 100q11 25 5.5 74t-25.5 79l-8 12l-7 5q-13 8 -39 8q-31 0 -107 -16q-24 -5 -37 -8q-193 -37 -263 -118q-4 -6 -0.5 -32t13.5 -51q21 -52 44 -80t72 -54q28 -15 59 -15v0zM856 178q42 0 88 38q16 14 25.5 46.5t9.5 74.5v6
q-1 44 -2.5 68t-13 58.5t-33.5 58.5q-6 5 -34 5q-10 0 -32 -1q-24 -1 -36 -1h-12h-7q-43 0 -96 -15t-80 -35l-2 -1l-1 -5q-8 -41 31 -167q15 -47 31.5 -67.5t60.5 -45.5q16 -9 35.5 -12t59.5 -5h5h3zM261 63q-40 0 -76 19q-54 29 -80.5 61t-48.5 87q-15 36 -17 71.5t11 52.5
q75 88 272 126q10 2 33.5 7t38 8t34 5.5t34.5 2.5q38 0 62 -14q26 18 48 22q7 1 14 1q18 0 39 -7q31 22 84.5 37.5t98.5 15.5h8h9q9 0 30 1t30 1q47 0 65 -20q20 -21 32.5 -45.5t17 -56t5.5 -47.5t1 -52q1 -103 -48 -143q-54 -45 -108 -45h-5q-29 1 -42 2t-32.5 5.5
t-35.5 14.5q-47 26 -67 51.5t-36 75.5q-38 122 -28 170q-13 5 -23 5h-5q-12 -2 -23 -16q24 -37 30.5 -94t-8.5 -91q-26 -69 -55 -107t-75.5 -61.5t-123.5 -36.5q-36 -6 -60 -6v0v0v0zM176 613q-26 5 -52 35q-11 14 -18.5 28t-8.5 21l-1 8q5 -2 11.5 -3t24 -3.5t21.5 1.5
q7 2 23 35t29 64l13 32q16 -4 48 -29q8 -6 64.5 4t66.5 14q3 2 15.5 -8t25.5 -10q22 1 -5 30l69 40l75 -29q-8 -17 0 -27q3 -4 8.5 0.5t9.5 11.5l4 6q3 1 7.5 2t17.5 3t23.5 3t21 0t13.5 -5q6 -5 11 -13t7 -14l2 -5l51 -1q22 -3 60 -25q17 -9 29.5 -29.5t22 -46.5t9.5 -27
q9 -19 11 -32q-75 25 -97 30q-16 3 -15 12q0 15 42 4q16 -5 36 -13q-30 73 -51 91q-9 8 -24 11.5t-26 3.5l-10 -1l-51 -5q-6 25 -16 30t-36 5.5t-35 -8.5q-9 -11 -25.5 -11.5t-24.5 15.5q-2 7 -7.5 13t-11.5 9.5t-12 6.5t-10 4l-4 2l-38 -14q1 0 2.5 -2t3 -8.5t-3.5 -15.5
q-6 -14 -22 -20t-31 -1q-9 3 -15.5 6.5t-9.5 5.5l-2 2l-118 -16l-35 38q-16 16 -20 13q-5 -4 -11 -61t-7 -59l-15 -34l-5 -2.5t-13 -3t-18 3.5q-5 1 -4 -2q1 -10 26 -27q16 -12 29 -13q22 -1 -2 -5l-12 -1l-1 -13z" />
    <glyph glyph-name="qianbao" unicode="&#xe503;" 
d="M736 569q-2 1 -42 22l7 7q43 40 58 81q4 10 10 35q10 62 -27 94q-53 44 -121 16q-5 -2 -8 1q-42 39 -100.5 39t-100.5 -38q-4 -4 -8 -2q-34 16 -71 8q-37 -7 -60 -35t-18 -66q9 -69 55 -120q1 -2 20 -21l-2 -1t-3 -2q-119 -54 -194.5 -163t-84.5 -242q-7 -89 11 -146
q19 -58 64.5 -95t104.5 -37h287.5h286.5q91 0 144 77q17 25 30 84q1 3 2 3.5l2 1t1.5 8.5t0.5 26q0 110 -16 168q-53 196 -228 297zM931 100q-9 -56 -24 -79q-22 -33 -61.5 -51.5t-81.5 -18.5h-254h-253q-56 0 -100 29t-57 80q-13 52 -7 144q5 77 50.5 154.5t110.5 134.5
t138 91l-10 9.5t-22 21t-15 13.5q-23 26 -34.5 47.5t-15.5 51.5q-7 58 56 72q9 2 26 -3t30 -9.5t14 -4.5q37 35 89 35t89 -36q2 -2 7 0q22 9 36.5 13t32.5 1t33 -16q17 -14 20.5 -29t-2.5 -39q-2 -9 -14 -29.5t-19 -30.5q-21 -27 -63 -69l16.5 -8t36 -17.5t24.5 -13.5
q44 -34 71 -57.5t55 -54.5t46 -66t30 -78q6 -25 9.5 -38.5t8 -35.5t6 -38t1.5 -36t-3 -39v0v0zM450 433l-31 33h-47v-21q0 -2 29 -32t59 -59l29 -29h-117v-46h117v-47h-117v-47h117v-94h47l-1 94h118v47h-117l-1 47h118v46h-118l118 120v21h-47q-41 -39 -49 -49l-10 -10
t-18.5 -19t-16.5 -17z" />
    <glyph glyph-name="wode-" unicode="&#xe686;" 
d="M451 -128q-13 0 -22 9t-9 22t9 21.5t22 8.5h508q13 0 22 -8.5t9 -21.5t-9 -22t-22 -9h-508zM416 -43l-297 -44q-12 -2 -21.5 5.5t-12.5 18.5l-44 297v3q0 17 7 24l348 481l102 140q8 11 19.5 13t21.5 -6l348 -252q11 -8 13 -19.5t-6 -21.5l-102 -140l-355 -488
q-5 -11 -21 -11zM727 466l-300 218l-331 -450l41 -260l259 41zM464 732l301 -218l64 92l-300 218z" />
    <glyph glyph-name="dingdan1" unicode="&#xe601;" 
d="M341 677h342q20 0 34 14t14 34v43q0 20 -14 34t-34 14h-342q-20 0 -34 -14t-14 -34v-43q0 -20 14 -34t34 -14zM347 731v32h331v-32h-331zM293 304h309v-53h-309v53zM852 773h-68v-53h63v-715h-672v715h66v53h-71q-20 0 -34 -14t-14 -34v-725q1 -20 15 -34t33 -14h683
q20 0 34 14t14 35v724q0 20 -14.5 34t-34.5 14zM293 560h395v-53h-395v53zM293 432h309v-53h-309v53z" />
    <glyph glyph-name="tuihuo" unicode="&#xe8fb;" 
d="M573 396h-124q-3 0 -4.5 3t-0.5 5q20 53 20 55q-3 -1 -6 -3q-9 -6 -30 -19l-4 -2q-36 -21 -53 -34q-28 -20 -28 -34q0 -10 14 -20q30 -21 109 -63h1q0 1 -24 56q-1 3 1 5.5t5 2.5h124h1q22 -3 42.5 -19t20.5 -45q0 -27 -19.5 -45.5t-44.5 -18.5h-147q-10 0 -17 -7t-7 -17
v0q0 -10 7 -17t17 -7h147q52 0 84 33q29 28 28 79v1q0 50 -30 81q-29 30 -82 30zM872 527q0 34 -18 63l-51 82q-17 29 -51 29h-476q-33 0 -51 -29l-51 -82q-18 -29 -18 -63v-88q0 -10 7 -17.5t17 -7.5t17 7.5t7 17.5v73h619v-372q0 -10 -7 -17t-17 -7h-571q-9 0 -16 7t-7 17
v175q0 10 -7.5 17t-17.5 7t-17 -7t-7 -17v-188q0 -25 17.5 -42.5t41.5 -17.5h598q24 0 41.5 17.5t17.5 42.5v400zM214 561l49 80q7 11 20 11h462q13 0 20 -11l49 -80h-600z" />
    <glyph glyph-name="gouwuche2" unicode="&#xe63f;" 
d="M246 -16q0 -28 20 -47.5t47.5 -19.5t47.5 19.5t20 47.5t-20 47.5t-47.5 19.5t-47.5 -19.5t-20 -47.5zM717 -16q0 -28 19.5 -47.5t47.5 -19.5t47.5 19.5t19.5 47.5t-19.5 47.5t-47.5 19.5t-47.5 -19.5t-19.5 -47.5zM906 131h-538q-21 0 -40 16.5t-24 38.5l-96 566
q-7 41 -40.5 68.5t-74.5 27.5h-23q-9 0 -17 -8t-8 -17.5t8 -17.5t17 -8h23q21 0 40 -16.5t24 -38.5l96 -566q7 -41 40.5 -68.5t74.5 -27.5h538q9 0 17 8t8 18t-7 17.5t-18 7.5zM880 717h-573q-9 0 -17 -8t-8 -17.5t8 -17.5t17 -8h573q19 0 28 -11.5t4 -30.5l-70 -282
q-5 -23 -27 -40.5t-47 -19.5l-397 -29q-10 0 -17.5 -8.5t-4.5 -20.5q0 -10 8.5 -17.5t20.5 -4.5l396 28q41 3 75 32t44 68l70 281q10 41 -15 73.5t-68 32.5z" />
    <glyph glyph-name="tuihuo1" unicode="&#xe603;" horiz-adv-x="1028" 
d="M512 -128q-143 0 -265 74q-12 7 -15.5 21.5t4 27t22 16t26.5 -3.5q105 -64 228 -64q90 0 171.5 35t140.5 94t94 140.5t35 171.5t-35 171.5t-94 140.5t-140.5 94t-171.5 35t-171.5 -35t-140.5 -94t-94 -140.5t-35 -171.5q0 -131 72 -240q8 -13 4.5 -27.5t-15.5 -22.5
t-26.5 -5t-22.5 16q-83 127 -83 279q0 103 38.5 196.5t111 166t166 111t196.5 38.5t196.5 -38.5t166 -111t111 -166t38.5 -196.5t-38.5 -196.5t-111 -166t-166 -111t-196.5 -38.5zM549 132q-140 0 -192 75q-15 -31 -41 -52q-16 -13 -28.5 -19.5t-20.5 -6.5q-5 2 -13 7t-8 14
q0 5 4.5 11t15.5 12h-1q66 36 66 87v174q0 7 -4 7h-60q-20 0 -20 19q0 11 4 17t16 6h70q12 0 19 -1t11 -6t5 -14t1 -24v-172q9 -43 52 -67.5t113 -24.5h219q21 0 21 -21t-21 -21h-208zM400 547q0 -8 -6.5 -15t-15.5 -7q-8 0 -24 15q-7 7 -16 15t-20 17t-19 15t-14 10
q-8 4 -11.5 9.5t-3.5 10.5q2 7 6 14.5t15 7.5q9 0 23 -11q8 -6 19 -14q13 -11 26 -21h-1q30 -24 36 -30q6 -8 6 -16zM715 329q-10 -8 -22.5 -17t-27.5 -18l8 -8t8 -7q26 -24 40 -36q14 -13 17 -16q5 -5 7.5 -10t2.5 -9q0 -9 -8 -16q-7 -6 -14.5 -6t-14.5 8v0
q-16 15 -31.5 30t-31.5 30q-31 29 -68 63q-38 34 -83 74h-31v-142q0 -7 1 -7q2 0 14 3q12 4 25 8q15 6 30 11q14 6 22 10q19 10 28.5 9.5t13.5 -7.5v0q4 -7 4 -12q0 -4 -1 -6.5t-5 -6t-11.5 -8.5t-20.5 -11q-13 -5 -28 -11q-16 -5 -32 -11q-37 -12 -51 -12q-16 0 -25 14
q-6 10 -6 32v337q0 27 9.5 36.5t34.5 9.5h221q25 0 35 -10.5t10 -35.5v-142q0 -26 -10.5 -37t-34.5 -11h-132q22 -19 41 -35q19 -17 37 -34q18 11 35 25t32 28q10 10 17.5 11.5t13 -2t8 -9t2.5 -8.5q0 -14 -28 -38zM693 529v47q0 9 -8 9h-213q-4 0 -5 -2t-1 -7v-47h227z
M693 489h-227v-56h219q8 0 8 10v46z" />
    <glyph glyph-name="ccgl-tuihuoyugao-2" unicode="&#xe622;" 
d="M586 399h-150q-4 0 -6 3t-1 7q25 64 24 66q-2 -1 -6 -4q-11 -7 -37 -22l-5 -3q-43 -26 -65 -41q-33 -25 -33 -42q0 -12 17 -24q37 -26 133 -76v0q1 1 -28 67q-2 4 0 7t6 3h152q27 -3 52 -22.5t25 -54.5q0 -33 -24 -55.5t-54 -22.5h-179q-12 0 -20.5 -8.5t-8.5 -20.5v-1
q0 -12 8.5 -20.5t20.5 -8.5h179q9 0 21.5 1.5t38 11.5t42.5 27q35 35 34 96v1q0 61 -37 100q-35 36 -99 36zM949 558q0 41 -22 76l-62 100q-21 34 -61 34h-578q-41 0 -62 -34l-63 -100q-22 -35 -22 -77v-107q0 -12 9 -20.5t21 -8.5t21 8.5t9 20.5v89h751v-451
q0 -12 -8.5 -20.5t-20.5 -8.5h-693q-12 0 -20.5 8.5t-8.5 20.5v212q0 12 -8.5 21t-21 9t-21 -9t-8.5 -21v-228q0 -30 21 -51.5t51 -21.5h725q30 0 51 21.5t21 51.5v486zM150 599l60 96q9 14 25 14h559q17 0 25 -14l60 -96h-729z" />
    <glyph glyph-name="houtui2" unicode="&#xe60d;" 
d="M736 -128l-512 512l512 512l64 -65l-447 -447l447 -447z" />
    <glyph glyph-name="wode4" unicode="&#xe76a;" 
d="M882 -22q-16 115 -88.5 197.5t-180.5 110.5q76 30 123.5 99t47.5 154q0 113 -80 193t-193 80t-192.5 -80t-79.5 -193q0 -85 47.5 -154t123.5 -99q-109 -29 -181 -112t-88 -198q-1 -3 -1 -5q0 -8 5.5 -13.5t13 -5.5t13 5.5t5.5 13.5v3q17 124 112 206.5t222 82.5
q128 0 223.5 -83.5t112.5 -208.5q0 -8 5.5 -13.5t13 -5.5t13 5.5t5.5 13.5q0 4 -2 7zM274 539q0 94 72 166t165 72q94 0 166 -72t72 -166q0 -93 -72 -165t-166 -72q-93 0 -165 72t-72 165z" />
    <glyph glyph-name="arrow" unicode="&#xe504;" 
d="M512 271l-292 292q-9 9 -22 9t-22.5 -9t-9.5 -22t10 -22l314 -315q9 -9 22 -9t22 9l315 315q9 9 9 22t-9 22t-22.5 9t-22.5 -9z" />
    <glyph glyph-name="denglu" unicode="&#xe61b;" 
d="M858 120q-45 104 -137 166q2 1 -4 6t-19 11.5t-29.5 13.5t-37.5 13.5t-42 11.5l1 1q-29 5 -58 8q65 1 105.5 11t56 23t28.5 35q5 -1 13.5 16.5t15 48.5t6.5 62q0 102 -72 174q-72 73 -174 73v0h-1q-102 0 -174 -73q-72 -72 -72 -174v0q0 -102 72 -175q26 -25 57 -42
q-14 -5 -27 -10q-67 -28 -119 -80t-81 -120.5t-29 -144.5v-1h51q0 134 95 229t229 95t229 -94.5t95 -229.5h51v1q0 77 -30 148zM315 547q0 81 57.5 138t138 57t138 -57t57.5 -138t-57.5 -138t-138 -57t-138 57t-57.5 138z" />
    <glyph glyph-name="qiandao2" unicode="&#xe60e;" 
d="M789 758h-70v59q0 8 -5.5 14t-13.5 6t-13.5 -6t-5.5 -14v-59h-364v59q0 8 -5.5 14t-13.5 6t-13.5 -6t-5.5 -14v-59h-44q-65 0 -111.5 -46t-46.5 -112v-510q0 -66 46.5 -112.5t111.5 -46.5h554q65 0 111.5 46.5t46.5 112.5v510q0 66 -46.5 112t-111.5 46zM909 90
q0 -50 -35 -85t-85 -35h-554q-50 0 -85 35t-35 85v452h794v-452zM909 580h-794v20q0 50 35 85t85 35h44v-50q0 -8 5.5 -13.5t13.5 -5.5t13.5 5.5t5.5 13.5v50h364v-50q0 -8 5.5 -13.5t13.5 -5.5t13.5 5.5t5.5 13.5v50h70q50 0 85 -35t35 -85v-20v0zM405 132q20 -20 48.5 -20
t48.5 21l239 239q5 5 5 13t-5.5 13.5t-13.5 5.5q-7 0 -13 -5l-239 -239q-9 -9 -21.5 -9t-21.5 9l-122 122q-6 5 -13 5q-8 0 -13.5 -5.5t-5.5 -13.5t5 -13z" />
    <glyph glyph-name="shouye3" unicode="&#xe611;" 
d="M310 247h-29v0q-6 0 -10 -4t-4 -10t4 -10.5t10 -4.5v0h29v0q6 0 10.5 4.5t4.5 10.5v0q0 6 -4.5 10t-10.5 4v0zM810.5 199.5q-4.5 4.5 -10.5 4.5t-10 -4l-173 -174q-4 -4 -4 -10t4 -10t10 -4t11 4l173 173q4 4 4 10v0q0 6 -4.5 10.5zM790 113l-86 -86q-4 -5 -4 -10.5
t4 -10t10 -4.5t10 4l87 87q3 4 3 10t-4 10t-10 4t-10 -4zM959 -56h-58v408q-14 -8 -29 -13v-395h-488v434q-11 10 -21 22q-1 -2 -7 -9v-447h-204v395q-15 5 -29 13v-408h-58q-6 0 -10 -4t-4 -10t4 -10.5t10 -4.5h894q6 0 10 4.5t4 10.5v0q0 6 -4 10t-10 4zM214 358
q44 0 87.5 28t61.5 68q18 -40 61.5 -68t87.5 -28t87.5 28t61.5 68q18 -40 61.5 -68t87.5 -28q67 0 115 47.5t48 115.5v2v1v0l-71 303v1q-1 2 -2 3t-1 2q-1 1 -3 2l-1 1q-2 1 -3 1q-1 1 -3 1h-0.5h-0.5h-752h-0.5h-0.5q-2 0 -3 -1q-1 0 -3 -1q-1 0 -1 -1q-2 -1 -3.5 -3
t-2.5 -5v0l-71 -303v0v-3q0 -68 47.5 -115.5t115.5 -47.5zM148 809h223l-21 -274h-267zM876 809l65 -274h-267l-21 274h223zM645 535h-266l21 274h224zM214 386q-52 0 -90 35t-43 86h266q-5 -51 -43 -86t-90 -35zM512 386q-52 0 -90 35t-43 86h266q-5 -51 -43 -86t-90 -35z
M810 386q-52 0 -90 35t-43 86h266q-5 -51 -43 -86t-90 -35z" />
    <glyph glyph-name="tubiaozhizuomoban" unicode="&#xe638;" 
d="M1025 480v177q0 27 -19.5 46t-46.5 19h-893q-27 0 -46.5 -19t-19.5 -46v-179q41 0 70 -29t29 -69t-29 -69t-70 -29v-178q0 -27 19.5 -46.5t46.5 -19.5h703v43h42v-43h148q27 0 46.5 19.5t19.5 46.5v180q-41 0 -70 29t-29 69.5t29 69t70 28.5zM561 377v-49h-112v-68h112
v-49h-112v-98h-61v98h-115v49h115v68h-115v49h97l-118 221h69l83 -172q7 -15 16 -37h1q7 18 17 38l83 171h65l-120 -221h95zM811 124h-42v43h42v-43zM811 209h-42v43h42v-43zM811 295h-42v42h42v-42zM811 380h-42v43h42v-43zM811 465h-42v43h42v-43zM811 551h-42v43h42v-43z
M811 636h-42v43h42v-43z" />
    <glyph glyph-name="women" unicode="&#xe613;" 
d="M871 277q-48 68 -122 98q33 23 52 59q24 42 24 91q0 74 -50.5 126.5t-120.5 52.5q-10 0 -17.5 -7t-7.5 -17t7.5 -17t17.5 -7q50 0 86 -38.5t36 -93t-36 -93t-86 -38.5q-10 0 -17.5 -7t-7.5 -17v0q0 -10 7.5 -17t17.5 -7q91 0 155.5 -69t64.5 -166q0 -10 7 -17t17 -7t17 7
t7 17q1 92 -51 167v0zM620 318q-39 27 -83 42q47 29 73.5 76t26.5 102q0 86 -61 146.5t-146.5 60.5t-146.5 -60.5t-61 -146.5q0 -60 32 -110q26 -42 69 -68q-45 -15 -84 -43q-42 -30 -74 -72q-66 -87 -66 -197q0 -10 7.5 -17.5t17.5 -7.5t17 7.5t7 17.5q0 116 82 198
q82 83 197 83h8l2 1q112 -2 192 -83q82 -82 82 -198q0 -10 7 -17.5t17 -7.5t17 7.5t7 17.5q0 109 -65 197q-31 42 -74 72v0zM429.5 697q65.5 0 112.5 -46.5t47 -112.5t-47 -112.5t-112.5 -46.5t-112 46.5t-46.5 112.5t46.5 112.5t112 46.5zM430 697z" />
    <glyph glyph-name="qianbao1" unicode="&#xe615;" 
d="M908 98v0q0 -39 -27.5 -66.5t-66.5 -27.5v0v0v0h-598v0q-39 0 -66.5 27.5t-27.5 66.5v561q0 31 22 53t53 22v0h302l77 55q7 2 14 -1t10 -10l16 -44h142q31 0 53 -22t22 -53v-56v0q31 0 53 -22t22 -53v-430zM197 696v0q-15 0 -26.5 -19.5t-11.5 -36.5q0 -15 11 -26t27 -11
h27h-19h4v0v0l225 93h-237zM591 693l-20 55v-19v0l-66 -33h-1l-206 -93h338zM795 659q0 15 -10.5 26t-26.5 11h-129l46 -93h120v56zM833 565h-636v0q-20 0 -38 11v-478q0 -24 16.5 -40t40.5 -16h598q23 0 39.5 16t16.5 40v131h-75q-31 0 -52.5 21.5t-21.5 52.5t21.5 53
t52.5 22h75v150q0 15 -11 26t-26 11zM870 266v75h-75q-15 0 -26 -11t-11 -26.5t11 -26.5t26 -11h75zM795 322h38v-37h-38v37z" />
    <glyph glyph-name="baoguo" unicode="&#xe6c1;" 
d="M491 896l-491 -237v-550l491 -237h42l491 237v550l-491 237h-42zM82 651l430 202l69 -29l-430 -206zM149 570l482 230l103 -50l-478 -238v-197l-51 89l-56 -23v189zM354 520l430 206l158 -75l-430 -203zM533 407l448 215v-486l-448 -214v485zM43 136v486l64 -31v-271
l80 30l72 -126l40 11v264l192 -92v-485z" />
    <glyph glyph-name="tixing1" unicode="&#xe822;" 
d="M486 611q0 11 7.5 18.5t18.5 7.5t18.5 -7.5t7.5 -18.5v-286q0 -11 -7.5 -18.5t-18.5 -7.5t-18.5 7.5t-7.5 18.5v286zM512 131q-21 0 -36 15t-15 36t15 36t36 15t36 -15t15 -36t-15 -36t-36 -15zM512.5 833q-91.5 0 -174.5 -36t-143 -96t-96 -143t-36 -174t36 -174
t96 -143t143 -96t174.5 -36t174.5 35.5t143 96t95.5 143.5t35.5 174t-35.5 174t-95.5 143.5t-143 96t-174.5 35.5zM512 -10q-107 0 -198 52.5t-143.5 143.5t-52.5 198t52.5 198t143.5 143.5t198 52.5t198 -52.5t143.5 -143.5t52.5 -198t-52.5 -198t-143.5 -143.5t-198 -52.5
z" />
    <glyph glyph-name="fangdajing" unicode="&#xe62c;" 
d="M974 57l-127 127l-5 5q70 108 70 237q0 90 -35 172t-94 141t-141 94t-171.5 35t-171.5 -35t-141 -94t-93.5 -141t-34.5 -171.5t34.5 -171.5t93.5 -141t141 -93.5t171 -34.5q157 0 279 98l126 -126q20 -20 49.5 -20.5t50 20t20 50t-20.5 49.5zM611 94q-67 -28 -140.5 -28
t-140.5 28q-65 27 -115 77t-77 115q-28 67 -28 140.5t28 140.5q27 65 77 115t115 77q67 29 140.5 29t140.5 -29q65 -27 115 -77t77 -115q29 -67 29 -140.5t-29 -140.5q-27 -65 -77 -115t-115 -77z" />
    <glyph glyph-name="women1" unicode="&#xe680;" 
d="M897 269q-51 73 -131 105q36 25 57 63q25 45 25 97q0 80 -53.5 136t-129.5 56q-11 0 -18.5 -7.5t-7.5 -18t7.5 -18.5t18.5 -8q54 0 92.5 -41t38.5 -99t-38.5 -99t-92.5 -41q-11 0 -18.5 -7.5t-7.5 -18.5v0q0 -11 7.5 -18.5t18.5 -7.5q97 0 166 -74t69 -178q0 -10 8 -18
t18.5 -8t18 8t7.5 18q1 99 -55 179zM628 313q-41 29 -88 45q50 31 78.5 81.5t28.5 108.5q0 92 -65 157.5t-157 65.5t-157.5 -65t-65.5 -158q0 -63 34 -117q28 -45 74 -73q-48 -17 -90 -46q-45 -32 -79 -77q-70 -94 -70 -212q0 -10 7.5 -18t18.5 -8t18.5 8t7.5 18
q0 125 88 213q88 89 211 89q4 -1 8 0l2 1q120 -3 206 -89q88 -88 88 -213q0 -10 7.5 -18t18.5 -8t18.5 8t7.5 18q0 118 -71 212q-33 44 -79 77zM424.5 719q70.5 0 120.5 -50t50 -120.5t-50 -120.5t-120.5 -50t-120 50t-49.5 120.5t49.5 120.5t120 50z" />
    <glyph glyph-name="wuliu-copy" unicode="&#xe506;" horiz-adv-x="1315" 
d="M1008 499q-12 18 -33 18h-40q-17 0 -28.5 -11.5t-11.5 -27.5v-237q0 -16 11.5 -27.5t28.5 -11.5h158q17 0 28.5 11.5t11.5 27.5v59q0 12 -7 22zM1093 241h-158v237h40l118 -178v-59zM1272 346l-159 236q-17 25 -43 39t-56 14h-158v79q0 49 -35 83.5t-84 34.5h-594
q-50 0 -84.5 -34.5t-34.5 -83.5v-433q0 -49 34.5 -84t84.5 -35v0v-118q0 -49 34.5 -83.5t83.5 -34.5h46q13 -51 55.5 -84.5t97 -33.5t97 33.5t55.5 84.5h210q13 -51 55.5 -84.5t97 -33.5t97 33.5t55.5 84.5h46q49 0 84 34.5t35 83.5v237q0 35 -20 65zM126 225q-15 0 -27 19
t-12 37v433q0 18 12 36.5t27 18.5h627q16 0 28 -18.5t12 -36.5v-433q0 -18 -12 -37t-28 -19h-627zM463 -127h-9q-37 0 -63 26t-26 63.5t26 63.5t63 26t63.5 -26t26.5 -64q0 -36 -24 -62.5t-57 -26.5zM983 -127h-8q-38 0 -64 26t-26 63.5t26 63.5t63.5 26t63.5 -26t26 -64
q0 -36 -24 -62.5t-57 -26.5zM1173 5h-46q-13 51 -55.5 84.5t-97 33.5t-97 -33.5t-55.5 -84.5h-210q-13 51 -55.5 84.5t-97 33.5t-97 -33.5t-55.5 -84.5h-46q-16 0 -27.5 11.5t-11.5 27.5v118h515q49 0 84 35t35 84v275h158q21 0 33 -17l159 -237q20 -31 20 -39v-211l3 -8
q0 -15 -19 -27t-37 -12z" />
    <glyph glyph-name="youhuiquan2" unicode="&#xe623;" horiz-adv-x="1036" 
d="M842.5 167q-7.5 5 -12.5 -2q-52 -74 -132.5 -116t-170.5 -42q-100 0 -186 50q-8 5 -12.5 -3t3.5 -12q90 -53 195 -53q94 0 178.5 44t139.5 122q5 7 -2.5 12zM155 378q0 50 14 101q3 9 -6 11q-8 2 -11 -6q-14 -53 -14 -106q0 -117 64 -214q3 -4 7 -4q3 0 5 2q8 5 3 12
q-62 93 -62 204zM527 767q-86 0 -163 -35.5t-133 -100.5q-6 -7 1 -12.5t13 1.5q53 62 126.5 96t155.5 34q100 0 186 -50t135.5 -135.5t49.5 -186.5q0 -33 -7 -68q-1 -9 8 -11h1q7 0 9 7q7 37 7 72q0 106 -52 195.5t-142 141.5t-195 52zM526.5 874q-100.5 0 -192.5 -39.5
t-158 -105.5t-105.5 -158t-39.5 -192.5t39.5 -192.5t105.5 -158t158 -105.5t192.5 -39.5t192.5 39.5t158 105.5t105.5 158t39.5 192.5t-39 192.5t-105.5 158t-158.5 105.5t-192.5 39.5zM526.5 -64q-89.5 0 -171.5 35t-141 94.5t-94.5 141t-35.5 171.5t35.5 172t94.5 141
t141 94.5t171.5 35.5t171.5 -35.5t141.5 -94.5t94.5 -141t35 -171.5t-35 -171.5t-94.5 -141.5t-141.5 -94.5t-171.5 -35zM646 601q-17 6 -25 -13q-4 -13 -23 -52q-8 -17 -10 -21h-63q6 23 15 73q2 19 -15 23q-19 1 -23 -16q-2 -23 -15 -80h-50q4 7 0 17q-14 36 -29 61
q-11 16 -27 8q-17 -11 -8 -27q14 -21 29 -59h-61q-16 0 -16 -17.5t16 -17.5h132q0 -2 -4 -6q-13 -29 -21 -38h-134q-18 0 -18 -17.5t18 -19.5h101q-36 -32 -109 -61q-15 -10 -8 -27q10 -12 29 -4q25 13 48 23q-8 -21 15 -25h85q-27 -88 -150 -115q-19 -6 -17 -23
q5 -18 27 -14q142 27 182 152h123q23 0 21 -23q-6 -59 -11 -77q-22 -46 -137 8q-17 10 -29 -6q-7 -13 10 -25q61 -36 123 -36q54 1 67 42q10 25 13 109q4 23 -6 34t-34 9h-266q40 21 77 59h138q42 -44 123 -84q19 -8 26 6q6 17 -11 27q-59 24 -88 51h86q15 2 15 20
q-1 17 -17 17h-248q11 20 22 44h207q15 0 15 17.5t-15 17.5h-90q16 37 25 59q5 19 -10 27z" />
    <glyph glyph-name="pinglun" unicode="&#xe618;" 
d="M779 778h-509q-49 0 -84 -37.5t-35 -87.5v-330q0 -49 33.5 -80t83.5 -31h47v-141l165 141h307q50 0 84 31t34 80v330q0 50 -38 87.5t-88 37.5zM858 323q0 -31 -21 -47.5t-50 -16.5h-324l-13 -11l-87 -75v86h-95q-29 0 -49.5 16.5t-20.5 47.5v330q0 31 21.5 54.5
t50.5 23.5h509q30 0 54.5 -24t24.5 -54v-330zM292 495q0 -20 14 -33.5t33.5 -13.5t33 13.5t13.5 33.5t-13.5 33.5t-33 13.5t-33.5 -13.5t-14 -33.5zM480 495q0 -20 14 -33.5t33.5 -13.5t33.5 13.5t14 33.5t-14 33.5t-33.5 13.5t-33.5 -13.5t-14 -33.5zM669 495
q0 -20 14 -33.5t33.5 -13.5t33 13.5t13.5 33.5t-13.5 33.5t-33 13.5t-33.5 -13.5t-14 -33.5z" />
    <glyph glyph-name="biao1" unicode="&#xe619;" 
d="M462.5 326q-65.5 0 -112 46.5t-46.5 112t46.5 112t112 46.5t112 -46.5t46.5 -112t-46.5 -112t-112 -46.5zM462 637q-63 0 -107.5 -44.5t-44.5 -108t44.5 -108t107.5 -44.5t108 44.5t45 108t-45 108t-108 44.5zM457 593h6v-108h-6v108zM457 488h111v-7h-111v7z" />
    <glyph glyph-name="jiao" unicode="&#xe6a1;" 
d="M963 128q-80 6 -153 22.5t-125 36.5t-98.5 46t-74 46.5t-51 42.5t-29.5 29.5l-10 12.5v0q-56 129 -56 409q-59 13 -258 -20v0q5 -94 -2 -211t-16.5 -190t-10.5 -70l-5 -16q-13 -14 -22 -31.5t-12 -32.5t-4 -28t-1 -21l1 -7q11 -49 36 -83t55 -49t67.5 -20.5t67 -3.5t61 9
t42 10.5l16.5 5.5v0q34 14 79.5 11.5t85.5 -9t40 -7.5q20 -6 88 -11.5t155 -4t134 15.5q20 7 31.5 16.5t13 20.5t-2 22.5t-11 22t-14.5 18.5t-12 13zM235 98q-37 3 -70.5 33.5t-33.5 75.5q0 19 7 36.5t17 30.5t20 23t17 15l7 5v404q2 3 5.5 7.5t15.5 12t25 7.5t24.5 -6.5
t16.5 -13.5l5 -7v-406q15 0 32 -24.5t27 -48.5l9 -24q0 -38 -22.5 -67.5t-50.5 -42t-51 -10.5z" />
  </font>
</defs>
</svg>
